#N canvas 880 145 917 687 10;
#X obj 167 13 inlet;
#X obj 106 629 outlet~;
#X obj 70 13 inlet;
#X text 14 12 distance;
#X text 119 13 doppler;
#X obj 189 72 loadbang;
#X obj 192 173 bng 15 250 50 0 empty empty empty 17 7 0 10 -262144
-1 -1;
#X floatatom 392 123 5 0 0 0 - - -;
#X msg 208 100 bang;
#X obj 190 144 metro 400;
#X obj 70 38 + 70;
#X obj 642 55 doppler;
#X obj 289 12 inlet;
#X obj -3 537 *~;
#X msg 25 223 bang;
#X obj 89 290 envgen 207 145 1 0  ;
#X obj -45 327 osc~ 50;
#X obj 48 490 line~;
#X obj 327 533 *~;
#X msg 352 169 bang;
#X obj 419 286 envgen 207 145 1 0  ;
#X obj 378 486 line~;
#X obj 322 267 osc~ 70;
#X obj 83 579 +~;
#X obj -46 355 *~ 3;
#X obj 324 335 *~ 3;
#X obj 289 36 / 40;
#X obj 289 57 * 300;
#X floatatom 390 80 5 0 0 0 - - -;
#X obj 289 81 expr 350-$f1;
#X msg -42 258 50;
#X obj -44 294 doppler;
#X obj 317 239 doppler;
#X floatatom -5 123 5 0 0 0 - - -;
#X msg 316 201 70;
#X floatatom 280 266 5 0 0 0 - - -;
#X floatatom -85 323 5 0 0 0 - - -;
#X msg 82 247 0 3 1 10 0;
#X msg 412 229 0 10 1 20 0;
#X connect 0 0 33 0;
#X connect 0 0 32 1;
#X connect 2 0 10 0;
#X connect 5 0 9 0;
#X connect 8 0 9 0;
#X connect 9 0 6 0;
#X connect 9 0 19 0;
#X connect 9 0 14 0;
#X connect 12 0 26 0;
#X connect 13 0 23 0;
#X connect 14 0 37 0;
#X connect 14 0 15 0;
#X connect 14 0 30 0;
#X connect 15 0 17 0;
#X connect 16 0 24 0;
#X connect 17 0 13 1;
#X connect 18 0 23 1;
#X connect 19 0 38 0;
#X connect 19 0 20 0;
#X connect 19 0 34 0;
#X connect 20 0 21 0;
#X connect 21 0 18 1;
#X connect 22 0 25 0;
#X connect 23 0 1 0;
#X connect 24 0 13 0;
#X connect 25 0 18 0;
#X connect 26 0 27 0;
#X connect 27 0 28 0;
#X connect 27 0 29 0;
#X connect 29 0 9 1;
#X connect 29 0 7 0;
#X connect 30 0 31 0;
#X connect 31 0 16 0;
#X connect 31 0 36 0;
#X connect 32 0 22 0;
#X connect 32 0 35 0;
#X connect 33 0 31 1;
#X connect 34 0 32 0;
#X connect 37 0 15 0;
#X connect 38 0 20 0;
