#N canvas -8 -8 1366 686 10;
#X obj -1163 116 inlet;
#X obj -1482 107 inlet;
#X text -1540 106 distance;
#X text -1214 117 doppler;
#X obj -1550 409 bng 15 250 50 0 empty empty empty 17 7 0 10 -262144
-1 -1;
#X obj -1520 460 bng 15 250 50 0 empty empty empty 17 7 0 10 -262144
-1 -1;
#X msg -1503 411 stop;
#X obj -1285 433 del 15;
#X obj -1534 436 metro 375;
#X obj -1463 419 hsl 128 15 10 1500 0 0 empty empty empty -2 -8 0 10
-262144 -1 -1 9291 1;
#X obj -1479 225 hsl 128 15 1 40 0 0 empty empty empty -2 -8 0 10 -262144
-1 -1 1303 1;
#X text -1460 208 MASTER WIDTH;
#X obj -1107 226 hsl 128 15 0.99 0.999 0 0 empty empty empty -2 -8
0 10 -262144 -1 -1 0 1;
#X text -1104 206 MASTER DECAY;
#X obj -1291 225 hsl 128 15 1000 6000 0 0 empty empty empty -2 -8 0
10 -262144 -1 -1 5080 1;
#X text -1287 207 MASTER CUTOFF;
#X text -1431 366 SPEED;
#X text -1558 391 START BUTTON;
#X floatatom -1422 655 5 0 0 0 - - -;
#X floatatom -1387 655 5 0 0 0 - - -;
#X floatatom -1351 655 5 0 0 0 - - -;
#X obj -1055 450 del 15;
#X obj -816 467 del 15;
#X obj -564 484 del 15;
#X obj -332 501 del 15;
#X text -926 218 STRUM SPEED;
#X obj -927 240 hsl 128 15 1 250 0 0 empty empty empty -2 -8 0 10 -262144
-1 -1 12700 1;
#X floatatom -823 259 5 0 0 0 - - -;
#X msg -1386 383 1000;
#X msg -1463 385 250;
#X msg -1426 385 500;
#X msg -1335 380 1250;
#X obj -1409 693 string;
#X obj -1174 695 string;
#X obj -965 696 string;
#X obj -733 708 string;
#X obj -481 699 string;
#X obj -242 713 string;
#X obj -1520 655 doppler;
#X obj -1482 135 / 100;
#X obj -1027 115 inlet;
#X text -1076 115 volume;
#X obj -1379 286 / 40;
#X obj -922 837 outlet~;
#X obj -1379 306 * 1000;
#X obj -1482 157 * 10;
#X obj -1482 182 + 5;
#X obj -1379 332 + 250;
#X obj -936 132 / 40;
#X obj -936 162 * 250;
#X obj -936 190 expr 250-$f1;
#X obj -1379 356 expr 1350-$f1;
#X obj -1295 124 / 100;
#X obj -1294 146 * 2000;
#X obj -1294 171 + 3000;
#X floatatom -1520 688 5 0 0 0 - - -;
#X obj -1285 647 doppler;
#X floatatom -1285 686 5 0 0 0 - - -;
#X obj -1055 670 doppler;
#X floatatom -1055 696 5 0 0 0 - - -;
#X obj -816 633 doppler;
#X floatatom -816 672 5 0 0 0 - - -;
#X obj -564 667 doppler;
#X floatatom -564 697 5 0 0 0 - - -;
#X obj -332 648 doppler;
#X floatatom -332 682 5 0 0 0 - - -;
#X floatatom -1518 210 5 0 0 0 - - -;
#X obj -1534 352 loadbang;
#X floatatom -1204 146 5 0 0 0 - - -;
#X obj -1528 34 cnv 15 1400 60 empty empty MidL_Guitar 20 30 0 14 -257985
-1 0;
#X floatatom -1200 648 5 0 0 0 - - -;
#X floatatom -1165 648 5 0 0 0 - - -;
#X floatatom -1129 648 5 0 0 0 - - -;
#X floatatom -957 651 5 0 0 0 - - -;
#X floatatom -922 651 5 0 0 0 - - -;
#X floatatom -886 651 5 0 0 0 - - -;
#X floatatom -707 659 5 0 0 0 - - -;
#X floatatom -672 659 5 0 0 0 - - -;
#X floatatom -636 659 5 0 0 0 - - -;
#X floatatom -470 658 5 0 0 0 - - -;
#X floatatom -435 658 5 0 0 0 - - -;
#X floatatom -399 658 5 0 0 0 - - -;
#X floatatom -241 659 5 0 0 0 - - -;
#X floatatom -206 659 5 0 0 0 - - -;
#X floatatom -170 659 5 0 0 0 - - -;
#X text -1457 496 C3 Tone:;
#X obj -1520 527 130.81;
#X obj -1285 520 146.83;
#X text -1002 490 E3 Tone:;
#X text -1228 491 D3 Tone:;
#X obj -1055 518 164.81;
#X text -758 505 F3 Tone:;
#X obj -816 537 174.61;
#X obj -564 536 196;
#X text -528 512 G3 Tone:;
#X text -287 506 A3 Tone:;
#X obj -332 534 220;
#X obj -1162 146 s $dopl;
#X obj -1027 141 s $voll;
#X obj -1109 246 s $MDecayL;
#X obj -1294 245 s $MCutoffL;
#X obj -1482 244 s $MWidthL;
#X obj -1481 630 r $dopl;
#X obj -1422 523 r $MWidthL;
#X obj -1387 545 r $MCutoffL;
#X obj -1351 567 r $MDecayL;
#X obj -1246 608 r $dopl;
#X obj -1200 516 r $MWidthL;
#X obj -1165 538 r $MCutoffL;
#X obj -1129 560 r $MDecayL;
#X obj -957 519 r $MWidthL;
#X obj -922 541 r $MCutoffL;
#X obj -886 563 r $MDecayL;
#X obj -1016 631 r $dopl;
#X obj -707 527 r $MWidthL;
#X obj -672 549 r $MCutoffL;
#X obj -636 571 r $MDecayL;
#X obj -777 606 r $dopl;
#X obj -470 526 r $MWidthL;
#X obj -435 548 r $MCutoffL;
#X obj -399 570 r $MDecayL;
#X obj -525 642 r $dopl;
#X obj -293 620 r $dopl;
#X obj -241 527 r $MWidthL;
#X obj -206 549 r $MCutoffL;
#X obj -170 571 r $MDecayL;
#X obj -1379 262 r $voll;
#X connect 0 0 68 0;
#X connect 0 0 97 0;
#X connect 1 0 39 0;
#X connect 1 0 52 0;
#X connect 4 0 8 0;
#X connect 5 0 7 0;
#X connect 5 0 86 0;
#X connect 6 0 8 0;
#X connect 7 0 21 0;
#X connect 7 0 87 0;
#X connect 8 0 5 0;
#X connect 9 0 8 1;
#X connect 10 0 101 0;
#X connect 12 0 99 0;
#X connect 14 0 100 0;
#X connect 18 0 32 1;
#X connect 19 0 32 2;
#X connect 20 0 32 3;
#X connect 21 0 22 0;
#X connect 21 0 90 0;
#X connect 22 0 23 0;
#X connect 22 0 92 0;
#X connect 23 0 24 0;
#X connect 23 0 93 0;
#X connect 24 0 96 0;
#X connect 26 0 7 1;
#X connect 26 0 21 1;
#X connect 26 0 22 1;
#X connect 26 0 23 1;
#X connect 26 0 24 1;
#X connect 26 0 27 0;
#X connect 28 0 9 0;
#X connect 29 0 9 0;
#X connect 30 0 9 0;
#X connect 31 0 9 0;
#X connect 32 0 43 0;
#X connect 33 0 43 0;
#X connect 34 0 43 0;
#X connect 35 0 43 0;
#X connect 36 0 43 0;
#X connect 37 0 43 0;
#X connect 38 0 32 0;
#X connect 38 0 55 0;
#X connect 39 0 45 0;
#X connect 40 0 48 0;
#X connect 40 0 98 0;
#X connect 42 0 44 0;
#X connect 44 0 47 0;
#X connect 45 0 46 0;
#X connect 46 0 10 0;
#X connect 46 0 66 0;
#X connect 47 0 51 0;
#X connect 48 0 49 0;
#X connect 49 0 50 0;
#X connect 50 0 26 0;
#X connect 51 0 9 0;
#X connect 52 0 53 0;
#X connect 53 0 54 0;
#X connect 54 0 14 0;
#X connect 56 0 57 0;
#X connect 56 0 33 0;
#X connect 58 0 59 0;
#X connect 58 0 34 0;
#X connect 60 0 61 0;
#X connect 60 0 35 0;
#X connect 62 0 63 0;
#X connect 62 0 36 0;
#X connect 64 0 65 0;
#X connect 64 0 37 0;
#X connect 67 0 8 0;
#X connect 70 0 33 1;
#X connect 71 0 33 2;
#X connect 72 0 33 3;
#X connect 73 0 34 1;
#X connect 74 0 34 2;
#X connect 75 0 34 3;
#X connect 76 0 35 1;
#X connect 77 0 35 2;
#X connect 78 0 35 3;
#X connect 79 0 36 1;
#X connect 80 0 36 2;
#X connect 81 0 36 3;
#X connect 82 0 37 1;
#X connect 83 0 37 2;
#X connect 84 0 37 3;
#X connect 86 0 38 0;
#X connect 87 0 56 0;
#X connect 90 0 58 0;
#X connect 92 0 60 0;
#X connect 93 0 62 0;
#X connect 96 0 64 0;
#X connect 102 0 38 1;
#X connect 103 0 18 0;
#X connect 104 0 19 0;
#X connect 105 0 20 0;
#X connect 106 0 56 1;
#X connect 107 0 70 0;
#X connect 108 0 71 0;
#X connect 109 0 72 0;
#X connect 110 0 73 0;
#X connect 111 0 74 0;
#X connect 112 0 75 0;
#X connect 113 0 58 1;
#X connect 114 0 76 0;
#X connect 115 0 77 0;
#X connect 116 0 78 0;
#X connect 117 0 60 1;
#X connect 118 0 79 0;
#X connect 119 0 80 0;
#X connect 120 0 81 0;
#X connect 121 0 62 1;
#X connect 122 0 64 1;
#X connect 123 0 82 0;
#X connect 124 0 83 0;
#X connect 125 0 84 0;
#X connect 126 0 42 0;
