#N canvas 1963 6 1426 829 10;
#X obj -1220 -167 inlet;
#X obj -1509 -160 inlet;
#X text -1565 -161 distance;
#X text -1271 -166 doppler;
#X obj -1594 -10 bng 15 250 50 0 empty empty empty 17 7 0 10 -262144
-1 -1;
#X obj -1564 41 bng 15 250 50 0 empty empty empty 17 7 0 10 -262144
-1 -1;
#X msg -1547 -8 stop;
#X obj -1412 211 hsl 128 15 0.99 0.999 0 0 empty empty empty -2 -8
0 10 -262144 -1 -1 0 1;
#X obj -1412 170 hsl 128 15 1 40 0 0 empty empty empty -2 -8 0 10 -262144
-1 -1 1470 1;
#X obj -1263 60 del 15;
#X obj -1578 17 metro 375;
#X obj -1507 0 hsl 128 15 10 1500 0 0 empty empty empty -2 -8 0 10
-262144 -1 -1 6261 1;
#X obj -1209 -3 hsl 128 15 1 40 0 0 empty empty empty -2 -8 0 10 -262144
-1 -1 1470 1;
#X text -1190 -20 MASTER WIDTH;
#X obj -883 -5 hsl 128 15 0.99 0.999 0 0 empty empty empty -2 -8 0
10 -262144 -1 -1 0 1;
#X text -880 -25 MASTER DECAY;
#X obj -1047 -4 hsl 128 15 1000 6000 0 0 empty empty empty -2 -8 0
10 -262144 -1 -1 5341 1;
#X obj -1411 191 hsl 128 15 1000 6000 0 0 empty empty empty -2 -8 0
10 -262144 -1 -1 5341 1;
#X text -1043 -21 MASTER CUTOFF;
#X text -1475 -53 SPEED;
#X text -1602 -28 START BUTTON;
#X floatatom -1388 235 5 0 0 0 - - -;
#X floatatom -1352 235 5 0 0 0 - - -;
#X floatatom -1316 235 5 0 0 0 - - -;
#X obj -1221 210 hsl 128 15 0.99 0.999 0 0 empty empty empty -2 -8
0 10 -262144 -1 -1 0 1;
#X obj -1221 169 hsl 128 15 1 40 0 0 empty empty empty -2 -8 0 10 -262144
-1 -1 1470 1;
#X obj -1220 190 hsl 128 15 1000 6000 0 0 empty empty empty -2 -8 0
10 -262144 -1 -1 5341 1;
#X floatatom -1197 234 5 0 0 0 - - -;
#X floatatom -1161 234 5 0 0 0 - - -;
#X floatatom -1125 234 5 0 0 0 - - -;
#X obj -1037 211 hsl 128 15 0.99 0.999 0 0 empty empty empty -2 -8
0 10 -262144 -1 -1 0 1;
#X obj -1037 170 hsl 128 15 1 40 0 0 empty empty empty -2 -8 0 10 -262144
-1 -1 1470 1;
#X obj -1036 191 hsl 128 15 1000 6000 0 0 empty empty empty -2 -8 0
10 -262144 -1 -1 5341 1;
#X floatatom -1013 235 5 0 0 0 - - -;
#X floatatom -977 235 5 0 0 0 - - -;
#X floatatom -941 235 5 0 0 0 - - -;
#X obj -855 210 hsl 128 15 0.99 0.999 0 0 empty empty empty -2 -8 0
10 -262144 -1 -1 0 1;
#X obj -855 169 hsl 128 15 1 40 0 0 empty empty empty -2 -8 0 10 -262144
-1 -1 1470 1;
#X obj -854 190 hsl 128 15 1000 6000 0 0 empty empty empty -2 -8 0
10 -262144 -1 -1 5341 1;
#X floatatom -831 234 5 0 0 0 - - -;
#X floatatom -795 234 5 0 0 0 - - -;
#X floatatom -759 234 5 0 0 0 - - -;
#X obj -671 209 hsl 128 15 0.99 0.999 0 0 empty empty empty -2 -8 0
10 -262144 -1 -1 0 1;
#X obj -671 168 hsl 128 15 1 40 0 0 empty empty empty -2 -8 0 10 -262144
-1 -1 1470 1;
#X obj -670 189 hsl 128 15 1000 6000 0 0 empty empty empty -2 -8 0
10 -262144 -1 -1 5341 1;
#X floatatom -647 233 5 0 0 0 - - -;
#X floatatom -611 233 5 0 0 0 - - -;
#X floatatom -575 233 5 0 0 0 - - -;
#X obj -486 209 hsl 128 15 0.99 0.999 0 0 empty empty empty -2 -8 0
10 -262144 -1 -1 0 1;
#X obj -486 168 hsl 128 15 1 40 0 0 empty empty empty -2 -8 0 10 -262144
-1 -1 1470 1;
#X obj -485 189 hsl 128 15 1000 6000 0 0 empty empty empty -2 -8 0
10 -262144 -1 -1 5341 1;
#X floatatom -462 233 5 0 0 0 - - -;
#X floatatom -426 233 5 0 0 0 - - -;
#X floatatom -390 233 5 0 0 0 - - -;
#X obj -1076 78 del 15;
#X obj -889 97 del 15;
#X obj -700 115 del 15;
#X obj -532 134 del 15;
#X text -477 -12 STRUM SPEED;
#X obj -473 10 hsl 128 15 1 250 0 0 empty empty empty -2 -8 0 10 -262144
-1 -1 8169 1;
#X floatatom -455 39 5 0 0 0 - - -;
#X msg -1430 -36 1000;
#X msg -1507 -34 250;
#X msg -1470 -34 500;
#X msg -1379 -39 1250;
#X obj -1386 278 string;
#X obj -1195 277 string;
#X obj -1011 278 string;
#X obj -829 277 string;
#X obj -645 276 string;
#X obj -460 276 string;
#X obj -1463 234 doppler;
#X obj -1212 -93 / 100;
#X obj -1079 -167 inlet;
#X text -1128 -167 volume;
#X obj -1423 -133 / 40;
#X obj -961 488 outlet~;
#X obj -1423 -113 * 1000;
#X obj -1212 -71 * 10;
#X obj -1212 -46 + 5;
#X obj -1423 -87 + 250;
#X obj -487 -98 / 40;
#X obj -487 -68 * 250;
#X obj -487 -40 expr 250-$f1;
#X obj -1423 -63 expr 1350-$f1;
#X obj -1052 -94 / 100;
#X obj -1051 -72 * 2000;
#X obj -1051 -47 + 3000;
#X floatatom -1471 279 5 0 0 0 - - -;
#X obj -1269 236 doppler;
#X floatatom -1277 281 5 0 0 0 - - -;
#X obj -1085 252 doppler;
#X floatatom -1093 297 5 0 0 0 - - -;
#X obj -905 236 doppler;
#X floatatom -906 278 5 0 0 0 - - -;
#X obj -721 229 doppler;
#X floatatom -722 271 5 0 0 0 - - -;
#X obj -535 227 doppler;
#X floatatom -536 269 5 0 0 0 - - -;
#X floatatom -1248 -18 5 0 0 0 - - -;
#X obj -1219 -135 s $dopl;
#X obj -1461 199 r $dopl;
#X obj -1267 198 r $dopl;
#X obj -1083 214 r $dopl;
#X obj -903 216 r $dopl;
#X obj -719 209 r $dopl;
#X obj -533 208 r $dopl;
#X obj -1458 170 130.81;
#X text -1455 152 C3 Tone:;
#X obj -1266 169 146.83;
#X text -1258 152 D3 Tone:;
#X obj -1079 169 164.81;
#X text -1070 153 E3 Tone:;
#X obj -902 168 174.61;
#X text -880 149 F3 Tone:;
#X text -698 150 G3 Tone:;
#X obj -700 167 196;
#X text -513 151 A3 Tone:;
#X obj -532 167 220;
#X obj -1578 -76 loadbang;
#X connect 0 0 100 0;
#X connect 1 0 72 0;
#X connect 1 0 85 0;
#X connect 4 0 10 0;
#X connect 5 0 9 0;
#X connect 5 0 107 0;
#X connect 6 0 10 0;
#X connect 7 0 23 0;
#X connect 8 0 21 0;
#X connect 9 0 54 0;
#X connect 9 0 109 0;
#X connect 10 0 5 0;
#X connect 11 0 10 1;
#X connect 12 0 8 0;
#X connect 12 0 25 0;
#X connect 12 0 31 0;
#X connect 12 0 37 0;
#X connect 12 0 43 0;
#X connect 12 0 49 0;
#X connect 14 0 7 0;
#X connect 14 0 24 0;
#X connect 14 0 30 0;
#X connect 14 0 36 0;
#X connect 14 0 42 0;
#X connect 14 0 48 0;
#X connect 16 0 17 0;
#X connect 16 0 26 0;
#X connect 16 0 32 0;
#X connect 16 0 38 0;
#X connect 16 0 44 0;
#X connect 16 0 50 0;
#X connect 17 0 22 0;
#X connect 21 0 65 1;
#X connect 22 0 65 2;
#X connect 23 0 65 3;
#X connect 24 0 29 0;
#X connect 25 0 27 0;
#X connect 26 0 28 0;
#X connect 27 0 66 1;
#X connect 28 0 66 2;
#X connect 29 0 66 3;
#X connect 30 0 35 0;
#X connect 31 0 33 0;
#X connect 32 0 34 0;
#X connect 33 0 67 1;
#X connect 34 0 67 2;
#X connect 35 0 67 3;
#X connect 36 0 41 0;
#X connect 37 0 39 0;
#X connect 38 0 40 0;
#X connect 39 0 68 1;
#X connect 40 0 68 2;
#X connect 41 0 68 3;
#X connect 42 0 47 0;
#X connect 43 0 45 0;
#X connect 44 0 46 0;
#X connect 45 0 69 1;
#X connect 46 0 69 2;
#X connect 47 0 69 3;
#X connect 48 0 53 0;
#X connect 49 0 51 0;
#X connect 50 0 52 0;
#X connect 51 0 70 1;
#X connect 52 0 70 2;
#X connect 53 0 70 3;
#X connect 54 0 55 0;
#X connect 54 0 111 0;
#X connect 55 0 56 0;
#X connect 55 0 113 0;
#X connect 56 0 57 0;
#X connect 56 0 116 0;
#X connect 57 0 118 0;
#X connect 59 0 9 1;
#X connect 59 0 54 1;
#X connect 59 0 55 1;
#X connect 59 0 56 1;
#X connect 59 0 57 1;
#X connect 59 0 60 0;
#X connect 61 0 11 0;
#X connect 62 0 11 0;
#X connect 63 0 11 0;
#X connect 64 0 11 0;
#X connect 65 0 76 0;
#X connect 66 0 76 0;
#X connect 67 0 76 0;
#X connect 68 0 76 0;
#X connect 69 0 76 0;
#X connect 70 0 76 0;
#X connect 71 0 65 0;
#X connect 71 0 88 0;
#X connect 72 0 78 0;
#X connect 73 0 75 0;
#X connect 73 0 81 0;
#X connect 75 0 77 0;
#X connect 77 0 80 0;
#X connect 78 0 79 0;
#X connect 79 0 12 0;
#X connect 79 0 99 0;
#X connect 80 0 84 0;
#X connect 81 0 82 0;
#X connect 82 0 83 0;
#X connect 83 0 59 0;
#X connect 84 0 11 0;
#X connect 85 0 86 0;
#X connect 86 0 87 0;
#X connect 87 0 16 0;
#X connect 89 0 90 0;
#X connect 89 0 66 0;
#X connect 91 0 92 0;
#X connect 91 0 67 0;
#X connect 93 0 94 0;
#X connect 93 0 68 0;
#X connect 95 0 96 0;
#X connect 95 0 69 0;
#X connect 97 0 98 0;
#X connect 97 0 70 0;
#X connect 101 0 71 1;
#X connect 102 0 89 1;
#X connect 103 0 91 1;
#X connect 104 0 93 1;
#X connect 105 0 95 1;
#X connect 106 0 97 1;
#X connect 107 0 71 0;
#X connect 109 0 89 0;
#X connect 111 0 91 0;
#X connect 113 0 68 0;
#X connect 113 0 93 0;
#X connect 116 0 95 0;
#X connect 118 0 97 0;
#X connect 119 0 10 0;
