#N canvas 2265 17 967 811 10;
#X obj 167 13 inlet;
#X obj 70 13 inlet;
#X text 14 12 distance;
#X text 119 13 doppler;
#X obj 230 31 loadbang;
#X obj 233 132 bng 15 250 50 0 empty empty empty 17 7 0 10 -262144
-1 -1;
#X floatatom 391 106 5 0 0 0 - - -;
#X msg 249 59 bang;
#X obj 231 103 metro 400;
#X obj 289 12 inlet;
#X obj 289 36 / 40;
#X floatatom 390 80 5 0 0 0 - - -;
#X obj 289 81 expr 350-$f1;
#X obj -22 412 doppler;
#X obj 275 299 doppler;
#X obj 57 100 bng 15 250 50 0 empty empty empty 17 7 0 10 -262144 -1
-1;
#X obj 276 608 outlet~;
#X obj -23 487 *~;
#X msg 3 164 bang;
#X obj 46 280 envgen 207 145 1 0  ;
#X obj -22 459 osc~ 50;
#X obj 44 443 line~;
#X msg 382 135 bang;
#X obj -38 379 line;
#X floatatom -71 405 5 0 0 0 - - -;
#X obj 275 365 osc~;
#X obj 275 272 line;
#X obj 423 372 osc~;
#X obj 407 292 osc~;
#X floatatom 407 228 5 0 0 0 - - -;
#X floatatom 472 228 5 0 0 0 - - -;
#X obj 423 348 *~;
#X obj 506 453 line~;
#X obj 462 499 *~;
#X text 0 141 BODY;
#X text 279 139 POP;
#X text 478 138 CLICK;
#X msg 407 204 60;
#X msg 472 205 600;
#X msg 506 198 1 \, 0 8;
#X msg 275 239 700 \, 0 4;
#X obj -267 64 loadbang;
#X msg -267 87 110;
#X msg -231 86 30;
#X msg -193 86 100;
#X floatatom -62 440 5 0 0 0 - - -;
#X obj 438 303 doppler;
#X obj 167 38 s $dop;
#X obj 461 283 r $dop;
#X obj 306 279 r $dop;
#X obj -3 390 r $dop;
#X msg -26 312 30;
#X obj 70 38 / 100;
#X floatatom -70 218 5 0 0 0 - - -;
#X obj -54 70 * 40;
#X obj 275 321 unzipper;
#X obj 438 326 unzipper;
#X obj 407 253 unzipper;
#X obj -26 346 pack f f;
#X obj -10 214 del 1;
#X msg 3 312 40;
#X obj 128 557 *~ 1;
#X obj 289 57 * 250;
#X obj 275 393 *~ 0.1;
#X obj 441 555 *~ 0.1;
#X obj -54 93 + 60;
#X msg 44 214 0 4 1 60 0.9 30 0;
#X connect 0 0 47 0;
#X connect 1 0 52 0;
#X connect 4 0 8 0;
#X connect 7 0 8 0;
#X connect 8 0 5 0;
#X connect 8 0 18 0;
#X connect 8 0 22 0;
#X connect 9 0 10 0;
#X connect 10 0 62 0;
#X connect 12 0 8 1;
#X connect 12 0 6 0;
#X connect 13 0 45 0;
#X connect 13 0 20 0;
#X connect 14 0 55 0;
#X connect 17 0 61 0;
#X connect 18 0 66 0;
#X connect 18 0 19 0;
#X connect 18 0 59 0;
#X connect 18 0 53 0;
#X connect 19 0 21 0;
#X connect 20 0 17 0;
#X connect 21 0 17 1;
#X connect 22 0 40 0;
#X connect 22 0 39 0;
#X connect 22 0 37 0;
#X connect 22 0 38 0;
#X connect 23 0 24 0;
#X connect 23 0 13 0;
#X connect 25 0 63 0;
#X connect 26 0 14 0;
#X connect 27 0 33 0;
#X connect 28 0 31 0;
#X connect 29 0 57 0;
#X connect 30 0 46 0;
#X connect 31 0 27 0;
#X connect 32 0 33 1;
#X connect 33 0 64 0;
#X connect 37 0 29 0;
#X connect 38 0 30 0;
#X connect 39 0 32 0;
#X connect 40 0 26 0;
#X connect 41 0 42 0;
#X connect 41 0 43 0;
#X connect 41 0 44 0;
#X connect 46 0 56 0;
#X connect 48 0 46 1;
#X connect 49 0 14 1;
#X connect 50 0 13 1;
#X connect 51 0 58 0;
#X connect 52 0 54 0;
#X connect 53 0 23 0;
#X connect 54 0 65 0;
#X connect 55 0 25 0;
#X connect 56 0 31 1;
#X connect 57 0 28 0;
#X connect 58 0 23 0;
#X connect 59 0 51 0;
#X connect 59 0 60 0;
#X connect 60 0 58 1;
#X connect 61 0 16 0;
#X connect 62 0 11 0;
#X connect 62 0 12 0;
#X connect 63 0 16 0;
#X connect 64 0 16 0;
#X connect 65 0 53 0;
#X connect 66 0 19 0;
