#N canvas 1980 10 1319 843 10;
#X obj 170 21 inlet;
#X obj 73 21 inlet;
#X text 17 20 distance;
#X text 122 21 doppler;
#X obj 466 109 loadbang;
#X obj 552 201 bng 15 250 50 0 empty empty empty 17 7 0 10 -262144
-1 -1;
#X msg 480 131 bang;
#X obj 474 158 metro 260;
#X obj 554 28 inlet;
#X text 536 9 volume;
#X obj 554 94 / 40;
#X floatatom 278 157 5 0 0 0 - - -;
#X floatatom 363 98 5 0 0 0 - - -;
#X obj 406 52 / 40;
#X obj 406 74 + 200;
#X obj 400 350 noise~;
#X obj 400 372 *~ 0.3;
#X obj 410 608 *~;
#X msg 376 236 bang;
#X msg 456 267 2000;
#X obj 162 624 *~;
#X obj 199 590 line~;
#X obj 106 576 *~ 3;
#X obj 461 561 line~;
#X obj 107 536 osc~ 220;
#X obj 175 388 envgen 200 140 1 0  ;
#X msg 177 355 0 2 1 40 0.5 5 0;
#X obj 543 403 envgen 200 140 1 0  ;
#X msg 593 327 0 2 1 30 0.5 10 0.4 5 0.5 50 0.5 50 0;
#X obj 254 726 outlet~;
#X floatatom 565 169 5 0 0 0 - - -;
#X obj 554 115 * 300;
#X obj 554 139 expr 300-$f1;
#X obj 111 390 doppler;
#X obj 427 439 hip~;
#X floatatom 461 374 5 0 0 0 - - -;
#X obj 262 79 / 100;
#X obj 265 102 * 5000;
#X obj 270 128 + 1000;
#X floatatom 70 428 5 0 0 0 - - -;
#X msg 111 348 220;
#X connect 0 0 33 1;
#X connect 1 0 36 0;
#X connect 4 0 7 0;
#X connect 6 0 7 0;
#X connect 7 0 5 0;
#X connect 7 0 18 0;
#X connect 8 0 10 0;
#X connect 8 0 13 0;
#X connect 10 0 31 0;
#X connect 11 0 35 0;
#X connect 13 0 14 0;
#X connect 14 0 12 0;
#X connect 15 0 16 0;
#X connect 16 0 34 0;
#X connect 17 0 29 0;
#X connect 18 0 19 0;
#X connect 18 0 26 0;
#X connect 18 0 25 0;
#X connect 18 0 28 0;
#X connect 18 0 27 0;
#X connect 18 0 40 0;
#X connect 20 0 29 0;
#X connect 21 0 20 1;
#X connect 22 0 20 0;
#X connect 23 0 17 1;
#X connect 24 0 22 0;
#X connect 25 0 21 0;
#X connect 26 0 25 0;
#X connect 27 0 23 0;
#X connect 28 0 27 0;
#X connect 31 0 32 0;
#X connect 32 0 7 1;
#X connect 32 0 30 0;
#X connect 33 0 39 0;
#X connect 33 0 24 0;
#X connect 34 0 17 0;
#X connect 35 0 34 1;
#X connect 36 0 37 0;
#X connect 37 0 38 0;
#X connect 38 0 11 0;
#X connect 40 0 33 0;
