#N canvas 170 83 608 589 10;
#X obj 46 44 cnv 15 400 60 empty empty High_OBS_Sound 20 30 0 14 -257985
-1 0;
#X floatatom 170 168 5 0 0 0 - - -;
#X floatatom 220 167 5 0 0 0 - - -;
#X obj 244 244 *~;
#X obj 170 137 inlet;
#X obj 220 137 inlet;
#X obj 244 270 outlet~;
#X obj 275 198 volumecontrol;
#X obj 275 137 inlet;
#X obj 183 198 highOBS_Snare;
#X connect 1 0 9 0;
#X connect 2 0 9 1;
#X connect 3 0 6 0;
#X connect 4 0 1 0;
#X connect 5 0 2 0;
#X connect 7 0 3 1;
#X connect 8 0 7 0;
#X connect 8 0 9 2;
#X connect 9 0 3 0;
