#N canvas 0 0 860 661 10;
#X obj 102 17 inlet;
#X obj 367 562 outlet~;
#X obj 190 21 inlet;
#X obj 417 29 inlet;
#X obj 545 34 inlet;
#X obj 23 184 bang;
#X obj 102 41 s \$0-midi-note;
#X obj 33 130 r \$0-midi-note;
#X floatatom 23 163 5 0 0 0 - - -;
#X obj 65 234 del 5;
#X msg 23 269 1 1;
#X obj 23 307 vline~;
#X msg 65 260 0 1;
#X obj 95 312 noise~;
#X obj 38 363 *~;
#X obj 37 449 delwrite~ \$0-del 1000;
#X obj 300 85 r \$0-midi-note;
#X obj 300 141 t b f;
#X msg 293 173 1;
#X obj 302 208 /;
#X obj 366 306 lop~ 4000;
#X obj 367 373 *~ 0.99;
#X floatatom 63 47 5 0 0 0 - - -;
#X text 192 6 WIDTH;
#X text 414 12 CUTOFF;
#X text 543 19 DECAY;
#X obj 302 264 delread~ \$0-del 12;
#X floatatom 361 147 5 0 0 0 - - -;
#X obj 302 234 * 1000;
#X floatatom 252 267 5 0 0 0 - - -;
#X floatatom 251 235 5 0 0 0 - - -;
#X text 95 289 NOISE BURST;
#X text 83 340 creates the initial "strum";
#X text 431 262 Delay specified by the frequency;
#X text 445 310 Low-pass filter;
#X text 433 373 DON'T SET THIS TO 1 OR ABOVE;
#X obj 368 498 *~ 0.25;
#X text 483 278 (a delay line whose length equals the period of the
desired frequency);
#X text 352 227 The delay amount in milliseconds. The period of the
frequency (1/f);
#X connect 0 0 6 0;
#X connect 0 0 22 0;
#X connect 2 0 9 1;
#X connect 3 0 20 1;
#X connect 4 0 21 1;
#X connect 5 0 10 0;
#X connect 5 0 9 0;
#X connect 7 0 8 0;
#X connect 8 0 5 0;
#X connect 9 0 12 0;
#X connect 10 0 11 0;
#X connect 11 0 14 0;
#X connect 12 0 11 0;
#X connect 13 0 14 1;
#X connect 14 0 15 0;
#X connect 16 0 17 0;
#X connect 16 0 27 0;
#X connect 17 0 18 0;
#X connect 17 1 19 1;
#X connect 18 0 19 0;
#X connect 19 0 28 0;
#X connect 19 0 30 0;
#X connect 20 0 21 0;
#X connect 21 0 15 0;
#X connect 21 0 36 0;
#X connect 26 0 20 0;
#X connect 28 0 26 0;
#X connect 28 0 29 0;
#X connect 36 0 1 0;
