#N canvas 682 60 645 627 10;
#X floatatom 150 148 5 0 0 0 - - -;
#X floatatom 200 147 5 0 0 0 - - -;
#X obj 224 224 *~;
#X obj 150 117 inlet;
#X obj 200 117 inlet;
#X obj 224 250 outlet~;
#X obj 255 178 volumecontrol;
#X obj 255 117 inlet;
#X obj 36 34 cnv 15 400 60 empty empty Low_OBS_Sound 20 30 0 14 -257985
-1 0;
#X obj 169 178 lowOBS_Kick;
#X connect 0 0 9 0;
#X connect 1 0 9 1;
#X connect 2 0 5 0;
#X connect 3 0 0 0;
#X connect 4 0 1 0;
#X connect 6 0 2 1;
#X connect 7 0 6 0;
#X connect 7 0 9 2;
#X connect 9 0 2 0;
