#N canvas 2036 119 1137 751 10;
#X declare -lib mrpeach;
#X obj 94 2 import mrpeach;
#X obj 94 30 udpreceive 6666;
#X obj 94 92 unpackOSC;
#X obj 94 126 routeOSC /test;
#X obj 357 557 output~;
#X floatatom 111 285 5 0 0 0 - - -;
#X floatatom 149 285 5 0 0 0 - - -;
#X floatatom 266 284 5 0 0 0 - - -;
#X floatatom 306 283 5 0 0 0 - - -;
#X floatatom 423 284 5 0 0 0 - - -;
#X floatatom 460 285 5 0 0 0 - - -;
#X text 693 608 TO DO;
#X obj 124 389 lowObsSound;
#X obj 275 364 highObsSound;
#X text 684 651 comment;
#X floatatom 187 284 5 0 0 0 - - -;
#X floatatom 347 282 5 0 0 0 - - -;
#X floatatom 500 285 5 0 0 0 - - -;
#X text 452 120 ORDERING: distance value \, doppler value \, volume
value;
#X floatatom 584 286 5 0 0 0 - - -;
#X floatatom 621 287 5 0 0 0 - - -;
#X floatatom 661 287 5 0 0 0 - - -;
#X text 689 632 make mids two objects;
#X obj 429 364 midRObsSound;
#X obj 584 389 midLObsSound;
#X obj 207 143 unpack string f f f f f f f f f f f f;
#X text 246 121 LOW - HIGH - MIDR - MIDL;
#X connect 1 0 2 0;
#X connect 2 0 3 0;
#X connect 3 1 25 0;
#X connect 5 0 12 0;
#X connect 6 0 12 1;
#X connect 7 0 13 0;
#X connect 8 0 13 1;
#X connect 9 0 23 0;
#X connect 10 0 23 1;
#X connect 12 0 4 1;
#X connect 12 0 4 0;
#X connect 13 0 4 1;
#X connect 13 0 4 0;
#X connect 15 0 12 2;
#X connect 16 0 13 2;
#X connect 17 0 23 2;
#X connect 19 0 24 0;
#X connect 20 0 24 1;
#X connect 21 0 24 2;
#X connect 23 0 4 1;
#X connect 24 0 4 0;
#X connect 25 1 5 0;
#X connect 25 2 6 0;
#X connect 25 3 15 0;
#X connect 25 4 7 0;
#X connect 25 5 8 0;
#X connect 25 6 16 0;
#X connect 25 7 9 0;
#X connect 25 8 10 0;
#X connect 25 9 17 0;
#X connect 25 10 19 0;
#X connect 25 11 20 0;
#X connect 25 12 21 0;
