#N canvas 896 91 627 698 10;
#X floatatom 221 220 5 0 0 0 - - -;
#X floatatom 272 221 5 0 0 0 - - -;
#X obj 169 358 *~;
#X obj 221 191 inlet;
#X obj 272 191 inlet;
#X obj 169 423 outlet~;
#X obj 90 311 volumecontrol;
#X obj 113 208 print;
#X obj 344 193 inlet;
#X obj 221 312 ampmodmidR;
#X connect 0 0 9 0;
#X connect 1 0 9 1;
#X connect 2 0 5 0;
#X connect 3 0 0 0;
#X connect 4 0 1 0;
#X connect 6 0 2 0;
#X connect 8 0 6 0;
#X connect 8 0 9 2;
#X connect 9 0 2 1;
