#N canvas -8 -8 1366 686 10;
#X obj -1173 106 inlet;
#X obj -1492 97 inlet;
#X text -1550 96 distance;
#X text -1224 107 doppler;
#X obj -1560 399 bng 15 250 50 0 empty empty empty 17 7 0 10 -262144
-1 -1;
#X obj -1530 450 bng 15 250 50 0 empty empty empty 17 7 0 10 -262144
-1 -1;
#X msg -1513 401 stop;
#X obj -1295 423 del 15;
#X obj -1544 426 metro 375;
#X obj -1473 409 hsl 128 15 10 1500 0 0 empty empty empty -2 -8 0 10
-262144 -1 -1 0 1;
#X obj -1489 215 hsl 128 15 1 40 0 0 empty empty empty -2 -8 0 10 -262144
-1 -1 0 1;
#X text -1470 198 MASTER WIDTH;
#X obj -1117 216 hsl 128 15 0.99 0.999 0 0 empty empty empty -2 -8
0 10 -262144 -1 -1 0 1;
#X text -1114 196 MASTER DECAY;
#X obj -1301 215 hsl 128 15 1000 6000 0 0 empty empty empty -2 -8 0
10 -262144 -1 -1 0 1;
#X text -1297 197 MASTER CUTOFF;
#X text -1441 356 SPEED;
#X text -1568 381 START BUTTON;
#X floatatom -1432 645 5 0 0 0 - - -;
#X floatatom -1397 645 5 0 0 0 - - -;
#X floatatom -1361 645 5 0 0 0 - - -;
#X obj -574 526 110;
#X text -1469 488 D2 Tone:;
#X text -1238 481 E2 Tone:;
#X obj -1295 510 82.41;
#X text -1012 480 F2 Tone:;
#X obj -1065 508 87.31;
#X text -768 495 G2 Tone:;
#X obj -826 527 98;
#X text -538 502 A2 Tone:;
#X text -323 508 B2 Tone:;
#X obj -342 524 123.47;
#X obj -1065 440 del 15;
#X obj -826 457 del 15;
#X obj -574 474 del 15;
#X obj -342 491 del 15;
#X text -936 208 STRUM SPEED;
#X obj -937 230 hsl 128 15 1 250 0 0 empty empty empty -2 -8 0 10 -262144
-1 -1 0 1;
#X obj -1530 513 73.42;
#X floatatom -833 249 5 0 0 0 - - -;
#X msg -1396 373 1000;
#X msg -1473 375 250;
#X msg -1436 375 500;
#X msg -1345 370 1250;
#X obj -1419 683 string;
#X obj -1184 685 string;
#X obj -975 686 string;
#X obj -743 698 string;
#X obj -491 689 string;
#X obj -252 703 string;
#X obj -1530 537 doppler;
#X obj -1492 125 / 100;
#X obj -1037 105 inlet;
#X text -1086 105 volume;
#X obj -1389 276 / 40;
#X obj -932 827 outlet~;
#X obj -1389 296 * 1000;
#X obj -1492 147 * 10;
#X obj -1492 172 + 5;
#X obj -1389 322 + 250;
#X obj -946 122 / 40;
#X obj -946 152 * 250;
#X obj -946 180 expr 250-$f1;
#X obj -1389 346 expr 1350-$f1;
#X obj -1305 114 / 100;
#X obj -1304 136 * 2000;
#X obj -1304 161 + 3000;
#X floatatom -1530 582 5 0 0 0 - - -;
#X obj -1295 637 doppler;
#X floatatom -1295 676 5 0 0 0 - - -;
#X obj -1065 660 doppler;
#X floatatom -1065 686 5 0 0 0 - - -;
#X obj -826 623 doppler;
#X floatatom -826 662 5 0 0 0 - - -;
#X obj -574 657 doppler;
#X floatatom -574 687 5 0 0 0 - - -;
#X obj -342 638 doppler;
#X floatatom -342 672 5 0 0 0 - - -;
#X floatatom -1528 200 5 0 0 0 - - -;
#X obj -1544 342 loadbang;
#X floatatom -1214 136 5 0 0 0 - - -;
#X obj -1173 136 s $dopr;
#X obj -1491 513 r $dopr;
#X obj -1256 598 r $dopr;
#X obj -1026 622 r $dopr;
#X obj -787 596 r $dopr;
#X obj -535 632 r $dopr;
#X obj -303 610 r $dopr;
#X obj -1538 24 cnv 15 1400 60 empty empty MidR_Guitar 20 30 0 14 -257985
-1 0;
#X obj -1037 131 s $volre;
#X obj -1389 252 r $volre;
#X obj -1492 234 s $MWidthR;
#X obj -1432 513 r $MWidthR;
#X obj -1304 235 s $MCutoffR;
#X obj -1397 535 r $MCutoffR;
#X obj -1120 237 s $MDecayR;
#X obj -1361 557 r $MDecayR;
#X floatatom -1210 638 5 0 0 0 - - -;
#X floatatom -1175 638 5 0 0 0 - - -;
#X floatatom -1139 638 5 0 0 0 - - -;
#X obj -1210 506 r $MWidthR;
#X obj -1175 528 r $MCutoffR;
#X obj -1139 550 r $MDecayR;
#X floatatom -967 641 5 0 0 0 - - -;
#X floatatom -932 641 5 0 0 0 - - -;
#X floatatom -896 641 5 0 0 0 - - -;
#X obj -967 509 r $MWidthR;
#X obj -932 531 r $MCutoffR;
#X obj -896 553 r $MDecayR;
#X floatatom -717 649 5 0 0 0 - - -;
#X floatatom -682 649 5 0 0 0 - - -;
#X floatatom -646 649 5 0 0 0 - - -;
#X obj -717 517 r $MWidthR;
#X obj -682 539 r $MCutoffR;
#X obj -646 561 r $MDecayR;
#X floatatom -480 648 5 0 0 0 - - -;
#X floatatom -445 648 5 0 0 0 - - -;
#X floatatom -409 648 5 0 0 0 - - -;
#X obj -480 516 r $MWidthR;
#X obj -445 538 r $MCutoffR;
#X obj -409 560 r $MDecayR;
#X floatatom -251 649 5 0 0 0 - - -;
#X floatatom -216 649 5 0 0 0 - - -;
#X floatatom -180 649 5 0 0 0 - - -;
#X obj -251 517 r $MWidthR;
#X obj -216 539 r $MCutoffR;
#X obj -180 561 r $MDecayR;
#X connect 0 0 80 0;
#X connect 0 0 81 0;
#X connect 1 0 51 0;
#X connect 1 0 64 0;
#X connect 4 0 8 0;
#X connect 5 0 7 0;
#X connect 5 0 38 0;
#X connect 6 0 8 0;
#X connect 7 0 24 0;
#X connect 7 0 32 0;
#X connect 8 0 5 0;
#X connect 9 0 8 1;
#X connect 10 0 91 0;
#X connect 12 0 95 0;
#X connect 14 0 93 0;
#X connect 18 0 44 1;
#X connect 19 0 44 2;
#X connect 20 0 44 3;
#X connect 21 0 74 0;
#X connect 24 0 68 0;
#X connect 26 0 70 0;
#X connect 28 0 72 0;
#X connect 31 0 76 0;
#X connect 32 0 26 0;
#X connect 32 0 33 0;
#X connect 33 0 28 0;
#X connect 33 0 34 0;
#X connect 34 0 21 0;
#X connect 34 0 35 0;
#X connect 35 0 31 0;
#X connect 37 0 7 1;
#X connect 37 0 32 1;
#X connect 37 0 33 1;
#X connect 37 0 34 1;
#X connect 37 0 35 1;
#X connect 37 0 39 0;
#X connect 38 0 50 0;
#X connect 40 0 9 0;
#X connect 41 0 9 0;
#X connect 42 0 9 0;
#X connect 43 0 9 0;
#X connect 44 0 55 0;
#X connect 45 0 55 0;
#X connect 46 0 55 0;
#X connect 47 0 55 0;
#X connect 48 0 55 0;
#X connect 49 0 55 0;
#X connect 50 0 44 0;
#X connect 50 0 67 0;
#X connect 51 0 57 0;
#X connect 52 0 89 0;
#X connect 52 0 60 0;
#X connect 54 0 56 0;
#X connect 56 0 59 0;
#X connect 57 0 58 0;
#X connect 58 0 10 0;
#X connect 58 0 78 0;
#X connect 59 0 63 0;
#X connect 60 0 61 0;
#X connect 61 0 62 0;
#X connect 62 0 37 0;
#X connect 63 0 9 0;
#X connect 64 0 65 0;
#X connect 65 0 66 0;
#X connect 66 0 14 0;
#X connect 68 0 69 0;
#X connect 68 0 45 0;
#X connect 70 0 71 0;
#X connect 70 0 46 0;
#X connect 72 0 73 0;
#X connect 72 0 47 0;
#X connect 74 0 75 0;
#X connect 74 0 48 0;
#X connect 76 0 77 0;
#X connect 76 0 49 0;
#X connect 79 0 8 0;
#X connect 82 0 50 1;
#X connect 83 0 68 1;
#X connect 84 0 70 1;
#X connect 85 0 72 1;
#X connect 86 0 74 1;
#X connect 87 0 76 1;
#X connect 90 0 54 0;
#X connect 92 0 18 0;
#X connect 94 0 19 0;
#X connect 96 0 20 0;
#X connect 97 0 45 1;
#X connect 98 0 45 2;
#X connect 99 0 45 3;
#X connect 100 0 97 0;
#X connect 101 0 98 0;
#X connect 102 0 99 0;
#X connect 103 0 46 1;
#X connect 104 0 46 2;
#X connect 105 0 46 3;
#X connect 106 0 103 0;
#X connect 107 0 104 0;
#X connect 108 0 105 0;
#X connect 109 0 47 1;
#X connect 110 0 47 2;
#X connect 111 0 47 3;
#X connect 112 0 109 0;
#X connect 113 0 110 0;
#X connect 114 0 111 0;
#X connect 115 0 48 1;
#X connect 116 0 48 2;
#X connect 117 0 48 3;
#X connect 118 0 115 0;
#X connect 119 0 116 0;
#X connect 120 0 117 0;
#X connect 121 0 49 1;
#X connect 122 0 49 2;
#X connect 123 0 49 3;
#X connect 124 0 121 0;
#X connect 125 0 122 0;
#X connect 126 0 123 0;
