#N canvas 609 44 627 698 10;
#X obj 46 44 cnv 15 400 60 empty empty MidR_OBS_Sound 20 30 0 14 -257985
-1 0;
#X floatatom 180 178 5 0 0 0 - - -;
#X floatatom 230 177 5 0 0 0 - - -;
#X obj 254 254 *~;
#X obj 180 147 inlet;
#X obj 230 147 inlet;
#X obj 254 280 outlet~;
#X obj 285 208 volumecontrol;
#X obj 285 147 inlet;
#X obj 190 208 MidROBS_Guitar;
#X connect 1 0 9 0;
#X connect 2 0 9 1;
#X connect 3 0 6 0;
#X connect 4 0 1 0;
#X connect 5 0 2 0;
#X connect 7 0 3 1;
#X connect 8 0 7 0;
#X connect 8 0 9 2;
#X connect 9 0 3 0;
