#N canvas 849 178 475 468 10;
#X obj 68 -120 kpluck~;
#X obj 136 -216 inlet;
#X obj 201 -217 inlet;
#X obj 268 -218 inlet;
#X text 268 -234 DECAY;
#X text 203 -233 CUTOFF;
#X text 138 -233 WIDTH;
#X obj 66 -218 inlet;
#X text 58 -235 FREQUENCY;
#X obj 66 -50 outlet~;
#X connect 0 0 9 0;
#X connect 1 0 0 1;
#X connect 2 0 0 2;
#X connect 3 0 0 3;
#X connect 7 0 0 0;
