#N canvas 455 86 538 441 10;
#X obj 237 134 inlet;
#X obj 237 233 vline~;
#X obj 237 259 outlet~;
#X text 181 134 distance;
#X msg 237 207 \$1 50;
#X floatatom 202 151 5 0 0 0 - - -;
#X floatatom 199 199 5 0 0 0 - - -;
#X obj 237 182 / 40;
#X obj 46 44 cnv 15 400 60 empty empty Volume_Control 20 30 0 14 -257985
-1 0;
#X connect 0 0 5 0;
#X connect 0 0 7 0;
#X connect 1 0 2 0;
#X connect 4 0 1 0;
#X connect 7 0 4 0;
#X connect 7 0 6 0;
