#N canvas 36 118 977 520 10;
#X obj -1447 -109 inlet;
#X obj -1516 325 outlet~;
#X floatatom -1171 71 5 0 0 0 - - -;
#X obj -1483 192 *~;
#X floatatom -1163 118 5 0 0 0 - - -;
#X obj -1544 -109 inlet;
#X text -1600 -110 distance;
#X text -1495 -109 doppler;
#X obj -1505 259 osc~;
#X obj -1193 136 osc~;
#X floatatom -1447 -85 5 0 0 0 - - -;
#X floatatom -1544 -53 5 0 0 0 - - -;
#X floatatom -1544 19 5 0 0 0 - - -;
#X floatatom -1396 18 5 0 0 0 - - -;
#X obj -1582 -3 == 1;
#X obj -1544 59 *;
#X floatatom -1544 81 5 0 0 0 - - -;
#X obj -1251 -4 == 0;
#X obj -1396 58 *;
#X floatatom -1396 80 5 0 0 0 - - -;
#X floatatom -1217 13 5 0 0 0 - - -;
#X floatatom -1611 19 5 0 0 0 - - -;
#X obj -1544 -4 expr $f1*340/(340+30) \;;
#X obj -1396 -5 expr $f1*340/(340-30) \;;
#X obj -1505 130 +;
#X obj -1171 -79 / 10;
#X text -1108 80 FM;
#X obj -1546 -84 + 350;
#X obj -1171 94 * 80;
#X msg -1100 174 1 \, 0 100;
#X obj -1002 74 loadbang;
#X obj -999 147 bng 15 250 50 0 empty empty empty 17 7 0 10 -262144
-1 -1;
#X floatatom -1077 129 5 0 0 0 - - -;
#X obj -1057 44 expr 1/ $f1;
#X text -1043 20 Pulse;
#X floatatom -1099 -44 5 0 0 0 - - -;
#X msg -927 75 bang;
#X obj -1006 120 metro 400;
#X obj -1057 73 * 300;
#X obj -1057 95 + 300;
#X obj -1173 218 line;
#X obj -1206 251 unzipper;
#X obj -1289 225 *~;
#X obj -1332 277 *~ 3;
#X connect 0 0 10 0;
#X connect 2 0 28 0;
#X connect 5 0 27 0;
#X connect 5 0 25 0;
#X connect 5 0 35 0;
#X connect 9 0 42 0;
#X connect 10 0 14 0;
#X connect 10 0 17 0;
#X connect 11 0 22 0;
#X connect 11 0 23 0;
#X connect 12 0 15 0;
#X connect 13 0 18 0;
#X connect 14 0 15 1;
#X connect 14 0 21 0;
#X connect 15 0 16 0;
#X connect 16 0 24 1;
#X connect 17 0 18 1;
#X connect 17 0 20 0;
#X connect 18 0 19 0;
#X connect 19 0 24 0;
#X connect 22 0 12 0;
#X connect 23 0 13 0;
#X connect 24 0 3 0;
#X connect 25 0 2 0;
#X connect 27 0 11 0;
#X connect 28 0 4 0;
#X connect 28 0 9 0;
#X connect 29 0 40 0;
#X connect 30 0 37 0;
#X connect 33 0 38 0;
#X connect 35 0 33 0;
#X connect 36 0 37 0;
#X connect 37 0 31 0;
#X connect 37 0 29 0;
#X connect 38 0 39 0;
#X connect 39 0 32 0;
#X connect 39 0 37 1;
#X connect 40 0 41 0;
#X connect 41 0 42 1;
#X connect 42 0 43 0;
#X connect 43 0 1 0;
