#N canvas 819 147 450 300 10;
#X obj -1437 -99 inlet;
#X obj -1534 -99 inlet;
#X text -1590 -100 distance;
#X text -1485 -99 doppler;
#X floatatom -1437 -75 5 0 0 0 - - -;
#X floatatom -1534 -43 5 0 0 0 - - -;
#X floatatom -1534 29 5 0 0 0 - - -;
#X floatatom -1386 28 5 0 0 0 - - -;
#X obj -1572 7 == 1;
#X obj -1534 69 *;
#X floatatom -1534 91 5 0 0 0 - - -;
#X obj -1241 6 == 0;
#X obj -1386 68 *;
#X floatatom -1386 90 5 0 0 0 - - -;
#X floatatom -1207 23 5 0 0 0 - - -;
#X floatatom -1601 29 5 0 0 0 - - -;
#X obj -1534 6 expr $f1*340/(340+30) \;;
#X obj -1386 5 expr $f1*340/(340-30) \;;
#X obj -1495 140 +;
#X obj -1495 176 outlet;
#X connect 0 0 4 0;
#X connect 1 0 5 0;
#X connect 4 0 8 0;
#X connect 4 0 11 0;
#X connect 5 0 16 0;
#X connect 5 0 17 0;
#X connect 6 0 9 0;
#X connect 7 0 12 0;
#X connect 8 0 9 1;
#X connect 8 0 15 0;
#X connect 9 0 10 0;
#X connect 10 0 18 1;
#X connect 11 0 12 1;
#X connect 11 0 14 0;
#X connect 12 0 13 0;
#X connect 13 0 18 0;
#X connect 16 0 6 0;
#X connect 17 0 7 0;
#X connect 18 0 19 0;
