#N canvas -1280 56 624 966 10;
#X obj 170 21 inlet;
#X obj 224 599 outlet~;
#X floatatom 446 201 5 0 0 0 - - -;
#X obj 134 322 *~;
#X floatatom 454 248 5 0 0 0 - - -;
#X obj 73 21 inlet;
#X text 17 20 distance;
#X text 122 21 doppler;
#X obj 112 389 osc~;
#X obj 348 301 osc~;
#X floatatom 170 45 5 0 0 0 - - -;
#X floatatom 73 77 5 0 0 0 - - -;
#X floatatom 73 149 5 0 0 0 - - -;
#X floatatom 221 148 5 0 0 0 - - -;
#X obj 35 127 == 1;
#X obj 73 189 *;
#X floatatom 73 211 5 0 0 0 - - -;
#X obj 366 126 == 0;
#X obj 221 188 *;
#X floatatom 221 211 5 0 0 0 - - -;
#X floatatom 400 143 5 0 0 0 - - -;
#X floatatom 6 149 5 0 0 0 - - -;
#X obj 73 126 expr $f1*340/(340+30) \;;
#X obj 221 125 expr $f1*340/(340-30) \;;
#X obj 73 46 + 400;
#X obj 112 260 +;
#X obj 446 51 / 10;
#X text 509 210 FM;
#X obj 489 388 line;
#X msg 563 301 1 \, 0 100;
#X obj 226 484 *~;
#X obj 661 201 loadbang;
#X obj 664 274 bng 15 250 50 0 empty empty empty 17 7 0 10 -262144
-1 -1;
#X floatatom 586 256 5 0 0 0 - - -;
#X obj 606 171 expr 1/ $f1;
#X obj 606 200 * 500;
#X obj 122 294 unzipper;
#X obj 359 253 unzipper;
#X obj 456 415 unzipper;
#X text 620 147 Pulse;
#X floatatom 564 83 5 0 0 0 - - -;
#X msg 736 202 bang;
#X obj 606 222 + 200;
#X obj 657 247 metro 260;
#X obj 446 224 * 20;
#X obj 226 533 *~ 2;
#X connect 0 0 10 0;
#X connect 2 0 44 0;
#X connect 3 0 8 0;
#X connect 5 0 24 0;
#X connect 5 0 26 0;
#X connect 8 0 30 0;
#X connect 9 0 45 0;
#X connect 10 0 14 0;
#X connect 10 0 17 0;
#X connect 11 0 22 0;
#X connect 11 0 23 0;
#X connect 12 0 15 0;
#X connect 13 0 18 0;
#X connect 14 0 15 1;
#X connect 14 0 21 0;
#X connect 15 0 16 0;
#X connect 16 0 25 1;
#X connect 17 0 18 1;
#X connect 17 0 20 0;
#X connect 18 0 19 0;
#X connect 19 0 25 0;
#X connect 22 0 12 0;
#X connect 23 0 13 0;
#X connect 24 0 11 0;
#X connect 25 0 36 0;
#X connect 26 0 2 0;
#X connect 28 0 38 0;
#X connect 29 0 28 0;
#X connect 31 0 43 0;
#X connect 34 0 35 0;
#X connect 35 0 42 0;
#X connect 36 0 3 0;
#X connect 37 0 9 0;
#X connect 38 0 30 1;
#X connect 40 0 34 0;
#X connect 41 0 43 0;
#X connect 42 0 33 0;
#X connect 43 0 32 0;
#X connect 43 0 29 0;
#X connect 44 0 4 0;
#X connect 44 0 37 0;
#X connect 45 0 1 0;
