#N canvas 2183 194 645 627 10;
#X declare -lib mrpeach;
#X obj 86 17 import mrpeach;
#X obj 86 45 udpreceive 6666;
#X obj 86 107 unpackOSC;
#X obj 86 141 routeOSC /test;
#X obj 202 158 unpack string f f;
#X floatatom 251 203 5 0 0 0 - - -;
#X floatatom 301 202 5 0 0 0 - - -;
#X obj 234 466 output~;
#X obj 160 296 volumecontrol;
#X obj 234 386 *~;
#X obj 315 296 ampmodhigh;
#X connect 1 0 2 0;
#X connect 2 0 3 0;
#X connect 3 1 4 0;
#X connect 4 1 5 0;
#X connect 4 2 6 0;
#X connect 5 0 8 0;
#X connect 5 0 10 0;
#X connect 6 0 10 1;
#X connect 8 0 9 0;
#X connect 9 0 7 0;
#X connect 10 0 9 1;
