#N canvas -809 189 592 593 10;
#X obj 216 127 inlet~;
#X obj 215 173 outlet~;
#X obj 307 173 outlet~;
#X text 378 91 Elevation: -40 - 90 (degrees);
#X obj 341 135 line 0 1;
#X obj 341 -59 inlet;
#X floatatom 341 -37 5 0 0 0 - - -;
#X floatatom 341 6 5 0 0 0 - - -;
#X floatatom 341 49 5 0 0 0 - - -;
#X floatatom 341 92 5 0 0 0 - - -;
#X obj 261 91 line 0 1;
#X text 102 47 Azimuth: 0 - 360 (degrees);
#X floatatom 261 5 5 0 0 0 - - -;
#X floatatom 261 48 5 0 0 0 - - -;
#X obj 261 69 pack 0 90;
#X obj 341 113 pack 0 40;
#X obj 261 26 expr 0-$f1;
#X obj 341 -16 / 30;
#X obj 341 27 * 60;
#X obj 341 70 expr 30+$f1;
#X obj 215 152 earplug~ 270 -25;
#X connect 0 0 20 0;
#X connect 4 0 20 2;
#X connect 5 0 6 0;
#X connect 6 0 17 0;
#X connect 7 0 18 0;
#X connect 8 0 19 0;
#X connect 9 0 15 0;
#X connect 10 0 20 1;
#X connect 12 0 16 0;
#X connect 13 0 14 0;
#X connect 14 0 10 0;
#X connect 15 0 4 0;
#X connect 16 0 13 0;
#X connect 17 0 7 0;
#X connect 18 0 8 0;
#X connect 19 0 9 0;
#X connect 20 0 1 0;
#X connect 20 1 2 0;
