#N canvas 649 82 608 589 10;
#X obj 179 199 *~;
#X floatatom 178 151 5 0 0 0 - - -;
#X floatatom 241 151 5 0 0 0 - - -;
#X obj 178 126 inlet;
#X obj 241 127 inlet;
#X obj 179 224 outlet~;
#X obj 286 127 inlet;
#X obj 286 183 volumecontrol;
#X obj 178 175 toneHighOBS;
#X obj 59 41 cnv 15 400 60 empty empty High_OBS_Sounds 20 30 0 14 -257985
-1 0;
#X connect 0 0 5 0;
#X connect 1 0 8 0;
#X connect 2 0 8 1;
#X connect 3 0 1 0;
#X connect 4 0 2 0;
#X connect 6 0 7 0;
#X connect 7 0 0 1;
#X connect 8 0 0 0;
