#N canvas 432 5 624 700 10;
#X obj 101 299 inlet~;
#X obj 100 345 outlet~;
#X obj 192 345 outlet~;
#X text 263 263 Elevation: -40 - 90 (degrees);
#X obj 226 307 line 0 1;
#X obj 226 113 inlet;
#X floatatom 226 135 5 0 0 0 - - -;
#X floatatom 226 178 5 0 0 0 - - -;
#X floatatom 226 221 5 0 0 0 - - -;
#X floatatom 226 264 5 0 0 0 - - -;
#X obj 226 285 pack 0 40;
#X obj 226 156 / 30;
#X obj 100 324 earplug~ 270 -50;
#X obj 226 199 * 100;
#X obj 226 242 expr -40+$f1;
#X obj 49 31 cnv 15 400 60 empty empty High_OBS_Binural 20 30 0 14
-257985 -1 0;
#X connect 0 0 12 0;
#X connect 4 0 12 2;
#X connect 5 0 6 0;
#X connect 6 0 11 0;
#X connect 7 0 13 0;
#X connect 8 0 14 0;
#X connect 9 0 10 0;
#X connect 10 0 4 0;
#X connect 11 0 7 0;
#X connect 12 0 1 0;
#X connect 12 1 2 0;
#X connect 13 0 8 0;
#X connect 14 0 9 0;
