#N canvas -1279 132 592 593 10;
#X obj 101 224 inlet~;
#X obj 100 270 outlet~;
#X obj 192 270 outlet~;
#X text 263 188 Elevation: -40 - 90 (degrees);
#X obj 226 232 line 0 1;
#X obj 226 38 inlet;
#X floatatom 226 60 5 0 0 0 - - -;
#X floatatom 226 103 5 0 0 0 - - -;
#X floatatom 226 146 5 0 0 0 - - -;
#X floatatom 226 189 5 0 0 0 - - -;
#X obj 226 210 pack 0 40;
#X obj 226 81 / 30;
#X obj 100 249 earplug~ 270 -50;
#X obj 226 167 expr -90+$f1;
#X obj 226 124 * 180;
#X connect 0 0 12 0;
#X connect 4 0 12 2;
#X connect 5 0 6 0;
#X connect 6 0 11 0;
#X connect 7 0 14 0;
#X connect 8 0 13 0;
#X connect 9 0 10 0;
#X connect 10 0 4 0;
#X connect 11 0 7 0;
#X connect 12 0 1 0;
#X connect 12 1 2 0;
#X connect 13 0 9 0;
#X connect 14 0 8 0;
