#N canvas -825 134 592 593 10;
#X obj 216 127 inlet~;
#X obj 215 173 outlet~;
#X obj 307 173 outlet~;
#X text 378 91 Elevation: -40 - 90 (degrees);
#X obj 341 135 line 0 1;
#X obj 341 -59 inlet;
#X floatatom 341 -37 5 0 0 0 - - -;
#X floatatom 341 6 5 0 0 0 - - -;
#X floatatom 341 49 5 0 0 0 - - -;
#X floatatom 341 92 5 0 0 0 - - -;
#X obj 341 70 expr 0+$f1;
#X obj 137 42 line 0 1;
#X text 175 0 Azimuth: 0 - 360 (degrees);
#X floatatom 137 -44 5 0 0 0 - - -;
#X floatatom 137 -1 5 0 0 0 - - -;
#X obj 137 20 pack 0 90;
#X obj 137 -23 expr 180-$f1;
#X obj 215 152 earplug~ 270 -25;
#X obj 341 -16 / 40;
#X obj 341 113 pack 0 20;
#X obj 341 27 * 80;
#X connect 0 0 17 0;
#X connect 4 0 17 2;
#X connect 5 0 6 0;
#X connect 6 0 18 0;
#X connect 7 0 20 0;
#X connect 8 0 10 0;
#X connect 9 0 19 0;
#X connect 10 0 9 0;
#X connect 11 0 17 1;
#X connect 13 0 16 0;
#X connect 14 0 15 0;
#X connect 15 0 11 0;
#X connect 16 0 14 0;
#X connect 17 0 1 0;
#X connect 17 1 2 0;
#X connect 18 0 7 0;
#X connect 19 0 4 0;
#X connect 20 0 8 0;
