#N canvas 1919 209 601 551 10;
#X declare -lib mrpeach;
#X obj 185 261 volumecontrol;
#X obj 76 7 import mrpeach;
#X obj 76 35 udpreceive 6666;
#X obj 76 97 unpackOSC;
#X obj 76 131 routeOSC /test;
#X obj 192 148 unpack string f f;
#X obj 247 340 *~;
#X obj 217 424 output~;
#X obj 324 261 freqmod;
#X floatatom 241 193 5 0 0 0 - - -;
#X floatatom 291 192 5 0 0 0 - - -;
#X obj 246 378 /~ 2;
#X connect 0 0 6 0;
#X connect 2 0 3 0;
#X connect 3 0 4 0;
#X connect 4 1 5 0;
#X connect 5 1 9 0;
#X connect 5 2 10 0;
#X connect 6 0 11 0;
#X connect 8 0 6 1;
#X connect 9 0 8 0;
#X connect 9 0 0 0;
#X connect 10 0 8 1;
#X connect 11 0 7 0;
#X connect 11 0 7 1;
