#N canvas 55 72 645 611 10;
#X floatatom 153 143 5 0 0 0 - - -;
#X floatatom 210 143 5 0 0 0 - - -;
#X obj 154 190 *~;
#X obj 153 118 inlet;
#X obj 210 118 inlet;
#X obj 153 215 outlet~;
#X obj 265 173 volumecontrol;
#X obj 265 118 inlet;
#X obj 153 167 toneLowOBS;
#X obj 49 31 cnv 15 400 60 empty empty Low_OBS_Sounds 20 30 0 14 -257985
-1 0;
#X connect 0 0 8 0;
#X connect 1 0 8 1;
#X connect 2 0 5 0;
#X connect 3 0 0 0;
#X connect 4 0 1 0;
#X connect 6 0 2 1;
#X connect 7 0 6 0;
#X connect 8 0 2 0;
