#N canvas 0 131 592 534 10;
#X obj 67 289 inlet~;
#X obj 66 335 outlet~;
#X obj 158 335 outlet~;
#X text 231 255 Elevation: -40 - 90 (degrees);
#X obj 192 297 line 0 1;
#X obj 192 103 inlet;
#X floatatom 192 125 5 0 0 0 - - -;
#X floatatom 192 168 5 0 0 0 - - -;
#X floatatom 192 211 5 0 0 0 - - -;
#X floatatom 192 254 5 0 0 0 - - -;
#X obj 192 146 / 40;
#X obj 192 275 pack 0 50;
#X obj 66 314 earplug~ 270 -50;
#X obj 192 232 expr 90-$f1;
#X obj 192 189 * 130;
#X obj 39 21 cnv 15 400 60 empty empty Low_OBS_Binural 20 30 0 14 -257985
-1 0;
#X connect 0 0 12 0;
#X connect 4 0 12 2;
#X connect 5 0 6 0;
#X connect 6 0 10 0;
#X connect 7 0 14 0;
#X connect 8 0 13 0;
#X connect 9 0 11 0;
#X connect 10 0 7 0;
#X connect 11 0 4 0;
#X connect 12 0 1 0;
#X connect 12 1 2 0;
#X connect 13 0 9 0;
#X connect 14 0 8 0;
