#N canvas -666 191 592 573 10;
#X obj 205 260 inlet~;
#X obj 204 306 outlet~;
#X obj 296 306 outlet~;
#X text 369 226 Elevation: -40 - 90 (degrees);
#X obj 330 268 line 0 1;
#X obj 330 74 inlet;
#X floatatom 330 96 5 0 0 0 - - -;
#X floatatom 330 139 5 0 0 0 - - -;
#X floatatom 330 182 5 0 0 0 - - -;
#X floatatom 330 225 5 0 0 0 - - -;
#X obj 330 203 expr 0-$f1;
#X obj 250 225 line 0 1;
#X text 89 182 Azimuth: 0 - 360 (degrees);
#X floatatom 250 139 5 0 0 0 - - -;
#X floatatom 250 182 5 0 0 0 - - -;
#X obj 250 203 pack 0 90;
#X obj 204 285 earplug~ 270 -25;
#X obj 330 117 / 40;
#X obj 330 246 pack 0 50;
#X obj 330 160 * 60;
#X obj 250 160 expr $f1;
#X connect 0 0 16 0;
#X connect 4 0 16 2;
#X connect 5 0 6 0;
#X connect 6 0 17 0;
#X connect 7 0 19 0;
#X connect 8 0 10 0;
#X connect 9 0 18 0;
#X connect 10 0 9 0;
#X connect 11 0 16 1;
#X connect 13 0 20 0;
#X connect 14 0 15 0;
#X connect 15 0 11 0;
#X connect 16 0 1 0;
#X connect 16 1 2 0;
#X connect 17 0 7 0;
#X connect 18 0 4 0;
#X connect 19 0 8 0;
#X connect 20 0 14 0;
