#N canvas 410 74 783 550 10;
#X declare -lib mrpeach;
#X declare -lib earplug~;
#X obj 60 108 import mrpeach;
#X obj 60 131 udpreceive 6666;
#X obj 60 154 unpackOSC;
#X obj 60 177 routeOSC /test;
#X obj 343 489 output~;
#X floatatom 75 286 5 0 0 0 - - -;
#X floatatom 119 286 5 0 0 0 - - -;
#X floatatom 236 286 5 0 0 0 - - -;
#X floatatom 282 286 5 0 0 0 - - -;
#X floatatom 401 287 5 0 0 0 - - -;
#X floatatom 448 287 5 0 0 0 - - -;
#X obj 88 350 lowObsSound;
#X obj 247 350 highObsSound;
#X floatatom 164 286 5 0 0 0 - - -;
#X floatatom 328 286 5 0 0 0 - - -;
#X floatatom 494 288 5 0 0 0 - - -;
#X text 466 193 ORDERING: distance value \, doppler value \, volume
value;
#X floatatom 566 288 5 0 0 0 - - -;
#X floatatom 612 288 5 0 0 0 - - -;
#X floatatom 659 288 5 0 0 0 - - -;
#X obj 413 350 midRObsSound;
#X obj 578 350 midLObsSound;
#X obj 231 194 unpack string f f f f f f f f f f f f;
#X text 287 172 LOW - HIGH - MIDR - MIDL;
#X obj 153 108 import earplug~;
#X obj 578 374 midLOBSBinural;
#X obj 413 374 midROBSBinural;
#X obj 89 374 lowOBSBinural;
#X obj 247 374 highOBSBinural;
#X obj 90 399 *~ 2;
#X obj 246 398 *~ 2;
#X obj 59 41 cnv 15 750 60 empty empty Main 20 30 0 14 -257985 -1 0
;
#X connect 1 0 2 0;
#X connect 2 0 3 0;
#X connect 3 1 22 0;
#X connect 5 0 11 0;
#X connect 6 0 11 1;
#X connect 7 0 12 0;
#X connect 8 0 12 1;
#X connect 9 0 20 0;
#X connect 10 0 20 1;
#X connect 11 0 27 0;
#X connect 12 0 28 0;
#X connect 13 0 11 2;
#X connect 13 0 27 1;
#X connect 14 0 12 2;
#X connect 14 0 28 1;
#X connect 15 0 26 1;
#X connect 15 0 20 2;
#X connect 17 0 21 0;
#X connect 18 0 21 1;
#X connect 19 0 25 1;
#X connect 19 0 21 2;
#X connect 20 0 26 0;
#X connect 21 0 25 0;
#X connect 22 1 5 0;
#X connect 22 2 6 0;
#X connect 22 3 13 0;
#X connect 22 4 7 0;
#X connect 22 5 8 0;
#X connect 22 6 14 0;
#X connect 22 7 9 0;
#X connect 22 8 10 0;
#X connect 22 9 15 0;
#X connect 22 10 17 0;
#X connect 22 11 18 0;
#X connect 22 12 19 0;
#X connect 25 0 4 0;
#X connect 25 1 4 1;
#X connect 26 0 4 0;
#X connect 26 1 4 1;
#X connect 27 0 29 0;
#X connect 27 1 29 0;
#X connect 28 0 30 0;
#X connect 28 1 30 0;
#X connect 29 0 4 0;
#X connect 29 0 4 1;
#X connect 30 0 4 0;
#X connect 30 0 4 1;
