#N canvas 2232 116 657 680 10;
#X declare -lib mrpeach;
#X obj 91 19 import mrpeach;
#X obj 91 47 udpreceive 6666;
#X obj 91 109 unpackOSC;
#X obj 91 143 routeOSC /test;
#X floatatom 256 205 5 0 0 0 - - -;
#X floatatom 307 206 5 0 0 0 - - -;
#X obj 214 551 output~;
#X obj 125 317 volumecontrol;
#X obj 204 361 *~;
#X obj 256 315 ampmodmid;
#X floatatom 542 334 5 0 0 0 - - -;
#X floatatom 408 312 5 0 0 0 - - -;
#X obj 207 160 unpack string f f f;
#X obj 309 494 *~;
#X obj 188 495 *~;
#X obj 447 244 panning;
#X floatatom 447 177 5 0 0 0 - - -;
#X connect 1 0 2 0;
#X connect 2 0 3 0;
#X connect 3 1 12 0;
#X connect 4 0 7 0;
#X connect 4 0 9 0;
#X connect 5 0 9 1;
#X connect 7 0 8 0;
#X connect 8 0 14 0;
#X connect 8 0 13 0;
#X connect 9 0 8 1;
#X connect 10 0 13 1;
#X connect 11 0 14 1;
#X connect 12 1 4 0;
#X connect 12 2 5 0;
#X connect 12 3 16 0;
#X connect 13 0 6 0;
#X connect 14 0 6 1;
#X connect 15 0 11 0;
#X connect 15 1 10 0;
#X connect 16 0 15 0;
