#N canvas 444 67 592 585 10;
#X obj 220 324 line 0 1;
#X text 258 282 Azimuth: 0 - 360 (degrees);
#X obj 175 346 inlet~;
#X obj 174 392 outlet~;
#X obj 266 392 outlet~;
#X obj 220 130 inlet;
#X floatatom 220 152 5 0 0 0 - - -;
#X floatatom 220 195 5 0 0 0 - - -;
#X floatatom 220 238 5 0 0 0 - - -;
#X floatatom 220 281 5 0 0 0 - - -;
#X obj 220 173 / 40;
#X obj 174 371 earplug~ 270 -50;
#X obj 220 216 * 90;
#X obj 220 302 pack 0 90;
#X obj 220 259 expr 180-$f1;
#X obj 59 41 cnv 15 400 60 empty empty MidR_OBS_Binural 20 30 0 14
-257985 -1 0;
#X connect 0 0 11 1;
#X connect 2 0 11 0;
#X connect 5 0 6 0;
#X connect 6 0 10 0;
#X connect 7 0 12 0;
#X connect 8 0 14 0;
#X connect 9 0 13 0;
#X connect 10 0 7 0;
#X connect 11 0 3 0;
#X connect 11 1 4 0;
#X connect 12 0 8 0;
#X connect 13 0 0 0;
#X connect 14 0 9 0;
