#N canvas 1281 173 559 530 10;
#X obj 154 28 inlet;
#X obj 131 342 outlet;
#X obj 219 343 outlet;
#X obj 221 112 select 2;
#X msg 184 154 1;
#X obj 219 187 -;
#X floatatom 219 221 5 0 0 0 - - -;
#X floatatom 100 202 5 0 0 0 - - -;
#X obj 131 158 >= 1;
#X obj 233 29 inlet;
#X floatatom 233 50 5 0 0 0 - - -;
#X msg 139 247;
#X floatatom 102 283 5 0 0 0 - - -;
#X obj 319 219 pan~;
#X obj 340 114 - 50;
#X connect 0 0 3 0;
#X connect 0 0 5 1;
#X connect 0 0 8 0;
#X connect 3 1 4 0;
#X connect 4 0 5 0;
#X connect 5 0 6 0;
#X connect 6 0 2 0;
#X connect 7 0 11 0;
#X connect 8 0 7 0;
#X connect 9 0 10 0;
#X connect 10 0 14 0;
#X connect 11 0 12 0;
#X connect 12 0 1 0;
#X connect 14 0 13 1;
