#N canvas -8 -8 1366 686 10;
#X obj 364 144 inlet;
#X obj 257 390 outlet~;
#X floatatom 272 137 5 0 0 0 - - -;
#X obj 157 96 inlet;
#X text 101 95 distance;
#X text 316 144 doppler;
#X obj 272 207 osc~;
#X floatatom 364 168 5 0 0 0 - - -;
#X obj 106 305 line;
#X msg 106 282 1 \, 0 100;
#X obj 258 344 *~;
#X obj 106 236 loadbang;
#X obj 157 162 expr 1/ $f1;
#X obj 106 328 unzipper;
#X text 171 138 Pulse;
#X floatatom 157 120 5 0 0 0 - - -;
#X obj 272 113 / 10;
#X obj 272 184 doppler;
#X obj 55 20 cnv 15 400 60 empty empty Tone:_HIGH_OBS 20 30 0 14 -257985
-1 0;
#X obj 272 160 * 150;
#X obj 157 191 * 500;
#X obj 157 213 + 200;
#X obj 106 259 metro 250;
#X obj 258 367 *~ 4;
#X connect 0 0 7 0;
#X connect 2 0 19 0;
#X connect 3 0 15 0;
#X connect 3 0 16 0;
#X connect 6 0 10 1;
#X connect 7 0 17 1;
#X connect 8 0 13 0;
#X connect 9 0 8 0;
#X connect 10 0 23 0;
#X connect 11 0 22 0;
#X connect 12 0 20 0;
#X connect 13 0 10 0;
#X connect 15 0 12 0;
#X connect 16 0 2 0;
#X connect 17 0 6 0;
#X connect 19 0 17 0;
#X connect 20 0 21 0;
#X connect 21 0 22 1;
#X connect 22 0 9 0;
#X connect 23 0 1 0;
