#N canvas 201 53 1366 686 10;
#X obj -1188 85 inlet;
#X obj -1295 331 outlet~;
#X floatatom -1280 78 5 0 0 0 - - -;
#X obj -1395 37 inlet;
#X text -1451 36 distance;
#X text -1236 85 doppler;
#X obj -1280 148 osc~;
#X floatatom -1188 109 5 0 0 0 - - -;
#X obj -1446 246 line;
#X msg -1446 223 1 \, 0 100;
#X obj -1294 285 *~;
#X obj -1446 177 loadbang;
#X obj -1395 103 expr 1/ $f1;
#X obj -1446 269 unzipper;
#X text -1381 79 Pulse;
#X floatatom -1395 61 5 0 0 0 - - -;
#X obj -1280 54 / 10;
#X obj -1280 125 doppler;
#X obj -1497 -39 cnv 15 400 60 empty empty Tone:_MidL_OBS 20 30 0 14
-257985 -1 0;
#X obj -1446 200 metro 250;
#X obj -1395 132 * 300;
#X obj -1395 154 + 300;
#X obj -1294 308 *~ 3;
#X obj -1280 101 * 60;
#X connect 0 0 7 0;
#X connect 2 0 23 0;
#X connect 3 0 15 0;
#X connect 3 0 16 0;
#X connect 6 0 10 1;
#X connect 7 0 17 1;
#X connect 8 0 13 0;
#X connect 9 0 8 0;
#X connect 10 0 22 0;
#X connect 11 0 19 0;
#X connect 12 0 20 0;
#X connect 13 0 10 0;
#X connect 15 0 12 0;
#X connect 16 0 2 0;
#X connect 17 0 6 0;
#X connect 19 0 9 0;
#X connect 20 0 21 0;
#X connect 21 0 19 1;
#X connect 22 0 1 0;
#X connect 23 0 17 0;
