#N canvas 515 160 510 393 10;
#X obj 190 110 inlet;
#X obj 190 230 vline~;
#X obj 190 256 outlet~;
#X text 134 110 distance;
#X floatatom 155 127 5 0 0 0 - - -;
#X floatatom 152 175 5 0 0 0 - - -;
#X obj 190 158 / 20;
#X msg 190 204 \$1 30;
#X obj 59 41 cnv 15 400 60 empty empty Volume_Control 20 30 0 14 -257985
-1 0;
#X connect 0 0 4 0;
#X connect 0 0 6 0;
#X connect 1 0 2 0;
#X connect 6 0 7 0;
#X connect 6 0 5 0;
#X connect 7 0 1 0;
