#N canvas 2892 24 400 300 10;
#X obj 186 23 inlet;
#X obj 144 247 outlet~;
#X obj 144 191 *~;
#X obj 95 23 inlet;
#X text 39 22 distance;
#X text 138 23 doppler;
#X floatatom 186 64 5 0 0 0 - - -;
#X floatatom 95 71 5 0 0 0 - - -;
#X obj 95 125 osc~;
#X floatatom 282 132 5 0 0 0 - - -;
#X text 202 96 SET AROUND 140;
#X obj 186 147 osc~;
#X obj 36 110 print;
#X obj 185 115 * 200;
#X connect 0 0 6 0;
#X connect 2 0 1 0;
#X connect 3 0 7 0;
#X connect 6 0 13 0;
#X connect 7 0 8 0;
#X connect 8 0 2 0;
#X connect 11 0 2 1;
#X connect 13 0 9 0;
#X connect 13 0 11 0;
