#N canvas 2467 8 401 329 10;
#X obj 176 13 inlet;
#X obj 134 237 outlet~;
#X obj 134 181 *~;
#X obj 85 13 inlet;
#X text 29 12 distance;
#X text 128 13 doppler;
#X floatatom 176 37 5 0 0 0 - - -;
#X floatatom 85 61 5 0 0 0 - - -;
#X obj 85 115 osc~;
#X floatatom 272 122 5 0 0 0 - - -;
#X text 192 86 SET AROUND 140;
#X obj 176 137 osc~;
#X obj 136 207 /~ 1.2;
#X obj 176 105 * 600;
#X connect 0 0 6 0;
#X connect 2 0 12 0;
#X connect 3 0 7 0;
#X connect 6 0 13 0;
#X connect 7 0 8 0;
#X connect 8 0 2 0;
#X connect 11 0 2 1;
#X connect 12 0 1 0;
#X connect 13 0 9 0;
#X connect 13 0 11 0;
