#N canvas 0 0 483 458 10;
#X obj 196 33 inlet;
#X obj 202 414 outlet~;
#X obj 105 33 inlet;
#X text 49 32 distance;
#X text 148 33 doppler;
#X floatatom 196 53 5 0 0 0 - - -;
#X floatatom 105 89 5 0 0 0 - - -;
#X obj 51 278 print;
#X obj 155 322 osc~;
#X floatatom 105 161 5 0 0 0 - - -;
#X obj 202 358 +~;
#X floatatom 253 160 5 0 0 0 - - -;
#X obj 67 139 == 1;
#X obj 105 201 *;
#X floatatom 105 223 5 0 0 0 - - -;
#X obj 398 138 == 0;
#X obj 253 200 *;
#X floatatom 253 222 5 0 0 0 - - -;
#X floatatom 432 155 5 0 0 0 - - -;
#X floatatom 38 161 5 0 0 0 - - -;
#X obj 155 279 +;
#X obj 240 322 osc~ 220;
#X obj 105 58 + 200;
#X obj 105 138 expr $f1*340/(340+30) \;;
#X obj 253 137 expr $f1*340/(340-30) \;;
#X text 340 268 HELLO!=!;
#X connect 0 0 5 0;
#X connect 2 0 22 0;
#X connect 5 0 12 0;
#X connect 5 0 15 0;
#X connect 6 0 23 0;
#X connect 6 0 24 0;
#X connect 8 0 10 1;
#X connect 9 0 13 0;
#X connect 10 0 1 0;
#X connect 11 0 16 0;
#X connect 12 0 13 1;
#X connect 12 0 19 0;
#X connect 13 0 14 0;
#X connect 14 0 20 1;
#X connect 15 0 16 1;
#X connect 15 0 18 0;
#X connect 16 0 17 0;
#X connect 17 0 20 0;
#X connect 20 0 8 0;
#X connect 21 0 10 0;
#X connect 22 0 6 0;
#X connect 23 0 9 0;
#X connect 24 0 11 0;
