#N canvas 2575 94 663 597 10;
#X obj 176 13 inlet;
#X obj 190 485 outlet~;
#X obj 229 410 *~;
#X obj 85 13 inlet;
#X text 29 12 distance;
#X text 128 13 doppler;
#X floatatom 460 264 5 0 0 0 - - -;
#X text 380 227 SET AROUND 140;
#X obj 364 279 osc~;
#X obj 170 337 osc~;
#X floatatom 176 36 5 0 0 0 - - -;
#X floatatom 85 67 5 0 0 0 - - -;
#X floatatom 85 139 5 0 0 0 - - -;
#X floatatom 233 138 5 0 0 0 - - -;
#X obj 47 117 == 1;
#X obj 85 179 *;
#X floatatom 85 201 5 0 0 0 - - -;
#X obj 378 116 == 0;
#X obj 233 178 *;
#X floatatom 233 200 5 0 0 0 - - -;
#X floatatom 412 133 5 0 0 0 - - -;
#X floatatom 18 139 5 0 0 0 - - -;
#X obj 156 265 +;
#X obj 85 116 expr $f1*340/(340+30) \;;
#X obj 233 115 expr $f1*340/(340-30) \;;
#X obj 85 36 + 100;
#X obj 364 247 * 1;
#X obj 189 457 *~ 1;
#X connect 0 0 10 0;
#X connect 2 0 27 0;
#X connect 3 0 25 0;
#X connect 3 0 26 0;
#X connect 8 0 2 1;
#X connect 9 0 2 0;
#X connect 10 0 14 0;
#X connect 10 0 17 0;
#X connect 11 0 23 0;
#X connect 11 0 24 0;
#X connect 12 0 15 0;
#X connect 13 0 18 0;
#X connect 14 0 15 1;
#X connect 14 0 21 0;
#X connect 15 0 16 0;
#X connect 16 0 22 1;
#X connect 17 0 18 1;
#X connect 17 0 20 0;
#X connect 18 0 19 0;
#X connect 19 0 22 0;
#X connect 22 0 9 0;
#X connect 23 0 12 0;
#X connect 24 0 13 0;
#X connect 25 0 11 0;
#X connect 26 0 6 0;
#X connect 26 0 8 0;
#X connect 27 0 1 0;
