#N canvas 754 47 630 385 10;
#X obj 275 28 inlet;
#X obj 193 331 outlet~;
#X floatatom 240 109 5 0 0 0 - - -;
#X floatatom 194 109 5 0 0 0 - - -;
#X obj 194 246 *~;
#X floatatom 248 156 5 0 0 0 - - -;
#X obj 240 198 osc~;
#X text 281 130 SET THIS NUMBER TO AROUND 20-30 SOMETHING;
#X obj 156 28 inlet;
#X text 100 27 distance;
#X text 227 28 doppler;
#X floatatom 275 52 5 0 0 0 - - -;
#X obj 275 76 * 3;
#X obj 148 159 / 6;
#X obj 240 132 * 4;
#X obj 309 202 print;
#X connect 0 0 11 0;
#X connect 2 0 14 0;
#X connect 3 0 4 0;
#X connect 4 0 1 0;
#X connect 6 0 4 1;
#X connect 8 0 2 0;
#X connect 11 0 12 0;
#X connect 12 0 3 0;
#X connect 14 0 5 0;
#X connect 14 0 6 0;
#X connect 14 0 15 0;
