#N canvas 2453 33 867 541 10;
#X obj 170 21 inlet;
#X obj 113 441 outlet~;
#X floatatom 446 201 5 0 0 0 - - -;
#X obj 134 322 *~;
#X floatatom 454 248 5 0 0 0 - - -;
#X obj 73 21 inlet;
#X text 17 20 distance;
#X text 122 21 doppler;
#X obj 112 389 osc~;
#X obj 424 266 osc~;
#X obj 112 408 *~ 2;
#X obj 446 224 * 150;
#X floatatom 170 45 5 0 0 0 - - -;
#X floatatom 73 77 5 0 0 0 - - -;
#X floatatom 73 149 5 0 0 0 - - -;
#X floatatom 221 148 5 0 0 0 - - -;
#X obj 35 127 == 1;
#X obj 73 189 *;
#X floatatom 73 211 5 0 0 0 - - -;
#X obj 366 126 == 0;
#X obj 221 188 *;
#X floatatom 221 210 5 0 0 0 - - -;
#X floatatom 400 143 5 0 0 0 - - -;
#X floatatom 6 149 5 0 0 0 - - -;
#X obj 73 126 expr $f1*340/(340+30) \;;
#X obj 221 125 expr $f1*340/(340-30) \;;
#X obj 73 46 + 400;
#X obj 112 260 +;
#X obj 446 51 / 10;
#X text 509 210 FM;
#X connect 0 0 12 0;
#X connect 2 0 11 0;
#X connect 3 0 8 0;
#X connect 5 0 26 0;
#X connect 5 0 28 0;
#X connect 8 0 10 0;
#X connect 9 0 3 1;
#X connect 10 0 1 0;
#X connect 11 0 4 0;
#X connect 11 0 9 0;
#X connect 12 0 16 0;
#X connect 12 0 19 0;
#X connect 13 0 24 0;
#X connect 13 0 25 0;
#X connect 14 0 17 0;
#X connect 15 0 20 0;
#X connect 16 0 17 1;
#X connect 16 0 23 0;
#X connect 17 0 18 0;
#X connect 18 0 27 1;
#X connect 19 0 20 1;
#X connect 19 0 22 0;
#X connect 20 0 21 0;
#X connect 21 0 27 0;
#X connect 24 0 14 0;
#X connect 25 0 15 0;
#X connect 26 0 13 0;
#X connect 27 0 3 0;
#X connect 28 0 2 0;
