#N canvas 1956 1 485 385 10;
#X obj 192 21 inlet;
#X obj 116 346 outlet~;
#X floatatom 157 102 5 0 0 0 - - -;
#X floatatom 111 102 5 0 0 0 - - -;
#X obj 111 239 *~;
#X floatatom 165 149 5 0 0 0 - - -;
#X obj 157 191 osc~;
#X text 198 123 SET THIS NUMBER TO AROUND 20-30 SOMETHING;
#X obj 73 21 inlet;
#X text 17 20 distance;
#X text 144 21 doppler;
#X floatatom 192 45 5 0 0 0 - - -;
#X obj 192 69 * 3;
#X obj 38 141 / 6;
#X obj 54 195 print;
#X obj 157 125 * 30;
#X obj 115 276 osc~ 220;
#X obj 105 66 * 10;
#X obj 125 308 *~ 3;
#X connect 0 0 11 0;
#X connect 2 0 15 0;
#X connect 3 0 4 0;
#X connect 4 0 16 0;
#X connect 6 0 4 1;
#X connect 8 0 17 0;
#X connect 11 0 12 0;
#X connect 12 0 2 0;
#X connect 15 0 5 0;
#X connect 15 0 6 0;
#X connect 16 0 18 0;
#X connect 17 0 3 0;
#X connect 18 0 1 0;
