#N canvas 2240 107 645 627 10;
#X floatatom 160 204 5 0 0 0 - - -;
#X floatatom 210 203 5 0 0 0 - - -;
#X obj 234 386 *~;
#X obj 315 296 ampmodhigh;
#X obj 160 118 inlet;
#X obj 210 118 inlet;
#X obj 233 460 outlet~;
#X obj 160 296 volumecontrol;
#X obj 265 118 inlet;
#X connect 0 0 3 0;
#X connect 1 0 3 1;
#X connect 2 0 6 0;
#X connect 3 0 2 1;
#X connect 4 0 0 0;
#X connect 5 0 1 0;
#X connect 7 0 2 0;
#X connect 8 0 7 0;
