#N canvas 1930 202 608 589 10;
#X obj 99 171 volumecontrol;
#X obj 161 250 *~;
#X obj 238 171 freqmod;
#X floatatom 155 103 5 0 0 0 - - -;
#X floatatom 205 102 5 0 0 0 - - -;
#X obj 155 38 inlet;
#X obj 205 38 inlet;
#X obj 160 332 outlet~;
#X obj 217 278 /~ 2;
#X connect 0 0 1 0;
#X connect 1 0 7 0;
#X connect 2 0 1 1;
#X connect 3 0 2 0;
#X connect 3 0 0 0;
#X connect 4 0 2 1;
#X connect 5 0 3 0;
#X connect 6 0 4 0;
