#N canvas 174 100 1137 751 10;
#X declare -lib mrpeach;
#X obj 94 2 import mrpeach;
#X obj 94 30 udpreceive 6666;
#X obj 94 92 unpackOSC;
#X obj 94 126 routeOSC /test;
#X obj 423 385 midObsSound;
#X obj 268 558 output~;
#X floatatom 130 279 5 0 0 0 - - -;
#X floatatom 193 279 5 0 0 0 - - -;
#X floatatom 269 259 5 0 0 0 - - -;
#X floatatom 338 259 5 0 0 0 - - -;
#X obj 269 336 highObsSound;
#X obj 124 352 lowObsSound;
#X floatatom 423 284 5 0 0 0 - - -;
#X floatatom 492 284 5 0 0 0 - - -;
#X floatatom 594 284 5 0 0 0 - - -;
#X text 598 261 pan;
#X text 469 568 TO DO;
#X text 821 542 differentiate frequencies;
#X text 824 528 change from vector distance to zpos distance;
#X text 820 581 see if there is any way to make the sound "travel"
to pans;
#X text 460 641 remake doppler;
#X text 825 561 make low obs louder;
#X text 460 611 make a hit sound effect;
#X text 826 501 DONE;
#X text 821 605 make everything 0 on exit;
#X obj 207 143 unpack string f f f f f f f f;
#X connect 1 0 2 0;
#X connect 2 0 3 0;
#X connect 3 1 25 0;
#X connect 4 0 5 0;
#X connect 4 1 5 1;
#X connect 6 0 11 0;
#X connect 7 0 11 1;
#X connect 8 0 10 0;
#X connect 9 0 10 1;
#X connect 10 0 5 0;
#X connect 10 0 5 1;
#X connect 11 0 5 0;
#X connect 11 0 5 1;
#X connect 12 0 4 0;
#X connect 13 0 4 1;
#X connect 14 0 4 2;
#X connect 25 1 6 0;
#X connect 25 2 7 0;
#X connect 25 3 8 0;
#X connect 25 4 9 0;
#X connect 25 5 12 0;
#X connect 25 6 13 0;
#X connect 25 7 14 0;
