#N canvas 720 22 720 852 10;
#X declare -lib mrpeach;
#X obj 94 2 import mrpeach;
#X obj 94 30 udpreceive 6666;
#X obj 94 92 unpackOSC;
#X obj 94 126 routeOSC /test;
#X obj 661 384 midObsSound;
#X obj 508 489 output~;
#X floatatom 368 279 5 0 0 0 - - -;
#X floatatom 431 279 5 0 0 0 - - -;
#X floatatom 507 259 5 0 0 0 - - -;
#X floatatom 576 259 5 0 0 0 - - -;
#X obj 507 336 highObsSound;
#X obj 360 350 lowObsSound;
#X obj 445 143 unpack string f f f f f f f;
#X floatatom 661 284 5 0 0 0 - - -;
#X floatatom 730 284 5 0 0 0 - - -;
#X floatatom 832 284 5 0 0 0 - - -;
#X text 836 261 pan;
#X connect 1 0 2 0;
#X connect 2 0 3 0;
#X connect 3 1 12 0;
#X connect 4 0 5 0;
#X connect 4 1 5 1;
#X connect 6 0 11 0;
#X connect 7 0 11 1;
#X connect 8 0 10 0;
#X connect 9 0 10 1;
#X connect 10 0 5 0;
#X connect 10 0 5 1;
#X connect 11 0 5 0;
#X connect 11 0 5 1;
#X connect 12 1 6 0;
#X connect 12 2 7 0;
#X connect 12 3 8 0;
#X connect 12 4 9 0;
#X connect 12 5 13 0;
#X connect 12 6 14 0;
#X connect 12 7 15 0;
#X connect 13 0 4 0;
#X connect 14 0 4 1;
#X connect 15 0 4 2;
