#N canvas 592 112 886 802 10;
#X floatatom 266 150 5 0 0 0 - - -;
#X floatatom 317 151 5 0 0 0 - - -;
#X obj 135 327 volumecontrol;
#X obj 214 371 *~;
#X obj 266 325 ampmodmid;
#X floatatom 552 344 5 0 0 0 - - -;
#X floatatom 418 322 5 0 0 0 - - -;
#X obj 319 504 *~;
#X obj 198 505 *~;
#X obj 457 254 panning;
#X floatatom 457 152 5 0 0 0 - - -;
#X obj 233 50 inlet;
#X obj 323 48 inlet;
#X obj 438 53 inlet;
#X obj 210 615 outlet~;
#X obj 280 615 outlet~;
#X connect 0 0 2 0;
#X connect 0 0 4 0;
#X connect 1 0 4 1;
#X connect 2 0 3 0;
#X connect 3 0 8 0;
#X connect 3 0 7 0;
#X connect 4 0 3 1;
#X connect 5 0 7 1;
#X connect 6 0 8 1;
#X connect 7 0 14 0;
#X connect 8 0 15 0;
#X connect 9 0 6 0;
#X connect 9 1 5 0;
#X connect 10 0 9 0;
#X connect 11 0 0 0;
#X connect 12 0 1 0;
#X connect 13 0 10 0;
