#N canvas 669 16 964 935 10;
#X floatatom 266 150 5 0 0 0 - - -;
#X floatatom 317 151 5 0 0 0 - - -;
#X obj 214 371 *~;
#X obj 266 325 ampmodmid;
#X floatatom 834 19 5 0 0 0 - - -;
#X floatatom 700 -3 5 0 0 0 - - -;
#X obj 821 77 *~;
#X obj 707 67 *~;
#X obj 739 -71 panning;
#X floatatom 705 -109 5 0 0 0 - - -;
#X obj 266 101 inlet;
#X obj 317 101 inlet;
#X obj 483 103 inlet;
#X obj 224 615 outlet~;
#X obj 280 615 outlet~;
#X obj 135 327 volumecontrol;
#X obj 795 141 *~ 2;
#X obj 720 145 *~ 2;
#X obj 158 118 print;
#X obj 260 488 pan~;
#X obj 633 223 - 50;
#X obj 514 151 print;
#X obj 278 553 *~ 2;
#X obj 237 556 *~ 2;
#X connect 0 0 3 0;
#X connect 0 0 15 0;
#X connect 1 0 3 1;
#X connect 2 0 19 0;
#X connect 3 0 2 1;
#X connect 4 0 6 1;
#X connect 5 0 7 1;
#X connect 6 0 17 0;
#X connect 7 0 16 0;
#X connect 8 0 5 0;
#X connect 8 1 4 0;
#X connect 9 0 8 0;
#X connect 10 0 0 0;
#X connect 11 0 1 0;
#X connect 12 0 19 1;
#X connect 12 0 21 0;
#X connect 15 0 2 0;
#X connect 19 0 23 0;
#X connect 19 1 22 0;
#X connect 22 0 14 0;
#X connect 23 0 13 0;
