#N canvas 1940 21 393 373 10;
#X obj 161 9 inlet;
#X obj 136 289 outlet;
#X obj 224 290 outlet;
#X obj 226 59 select 2;
#X msg 189 101 1;
#X obj 224 134 -;
#X floatatom 224 168 5 0 0 0 - - -;
#X floatatom 136 144 5 0 0 0 - - -;
#X obj 136 105 >= 1;
#X connect 0 0 3 0;
#X connect 0 0 5 1;
#X connect 0 0 8 0;
#X connect 3 1 4 0;
#X connect 4 0 5 0;
#X connect 5 0 6 0;
#X connect 6 0 2 0;
#X connect 7 0 1 0;
#X connect 8 0 7 0;
