#N canvas 357 88 518 780 10;
#X declare -lib mrpeach;
#X obj 147 132 import mrpeach;
#X obj 155 257 udpreceive 6666;
#X obj 154 319 unpackOSC;
#X obj 218 465 unpack string f;
#X obj 164 386 routeOSC /test;
#X obj 184 554 print;
#X floatatom 315 508 5 0 0 0 - - -;
#X obj 318 584 *~ 0.05;
#X obj 144 622 dac~;
#X obj 306 551 osc~ 440;
#X obj 315 665 output~;
#X connect 1 0 2 0;
#X connect 2 0 4 0;
#X connect 3 1 6 0;
#X connect 3 1 5 0;
#X connect 4 1 3 0;
#X connect 6 0 9 0;
#X connect 7 0 10 0;
#X connect 9 0 7 0;
