#N canvas 66 79 450 300 10;
#X obj 37 31 inlet;
#X obj 37 69 line~;
#X msg 37 50 \$1 50;
#X obj 37 88 outlet~;
#N canvas 287 434 450 300 example 0;
#X obj 350 92 osc~ 440;
#X obj 231 172 *~;
#X obj 227 258 dac~;
#X obj 245 117 line~;
#X msg 245 98 \$1 50;
#X obj 232 215 *~;
#X obj 102 119 bng 15 250 50 0 empty empty not_zipping 17 7 0 10 -262144
-1 -1;
#X msg 101 198 1;
#X obj 101 179 t b b;
#X obj 375 167 *~;
#X obj 376 215 *~;
#X msg 128 198 0;
#X obj 102 102 bng 15 250 50 0 empty empty zipping 17 7 0 10 -262144
-1 -1;
#X obj 47 179 t b b;
#X msg 47 198 0;
#X msg 74 198 1;
#X obj 105 143 hsl 80 15 0 1 0 0 empty empty empty -2 -8 0 10 -262144
-1 -1 0 1;
#X text 126 129 volume;
#X connect 0 0 1 0;
#X connect 0 0 9 0;
#X connect 1 0 5 0;
#X connect 3 0 1 1;
#X connect 4 0 3 0;
#X connect 5 0 2 0;
#X connect 5 0 2 1;
#X connect 6 0 8 0;
#X connect 7 0 5 1;
#X connect 8 0 7 0;
#X connect 8 1 11 0;
#X connect 9 0 10 0;
#X connect 10 0 2 0;
#X connect 10 0 2 1;
#X connect 11 0 10 1;
#X connect 12 0 13 0;
#X connect 13 0 14 0;
#X connect 13 1 15 0;
#X connect 14 0 5 1;
#X connect 15 0 10 1;
#X connect 16 0 4 0;
#X connect 16 0 9 1;
#X coords 0 -1 1 1 90 60 2 100 100;
#X restore 202 107 pd example;
#X text 225 85 example;
#X text 94 24 this is an abstraction that avoids zipping noises when
controlling signal boxes with non-signal objects (number boxes \, sliders
\, etc.).;
#X connect 0 0 2 0;
#X connect 1 0 3 0;
#X connect 2 0 1 0;
