#N canvas 724 106 975 780 10;
#X declare -lib mrpeach;
#X obj 16 11 import mrpeach;
#X obj 16 39 udpreceive 6666;
#X obj 16 101 unpackOSC;
#X obj 16 135 routeOSC /test;
#X obj 237 535 output~;
#X obj 159 152 unpack string f f;
#X floatatom 288 236 5 0 0 0 - - -;
#X obj 133 180 print;
#X floatatom 237 231 5 0 0 0 - - -;
#X obj 241 394 *~;
#X obj 287 267 * 220;
#X floatatom 386 233 5 0 0 0 - - -;
#X floatatom 396 305 5 0 0 0 - - -;
#X obj 236 437 osc~ 220;
#X obj 288 351 osc~;
#X text 425 234 SET THIS NUMBER TO AROUND 20-30 SOMETHING;
#X connect 1 0 2 0;
#X connect 2 0 3 0;
#X connect 3 1 5 0;
#X connect 5 1 7 0;
#X connect 5 1 8 0;
#X connect 5 2 6 0;
#X connect 6 0 10 0;
#X connect 8 0 9 0;
#X connect 9 0 13 0;
#X connect 10 0 12 0;
#X connect 10 0 14 0;
#X connect 11 0 10 1;
#X connect 13 0 4 0;
#X connect 14 0 9 1;
