#N canvas 693 107 750 730 10;
#X declare -lib mrpeach;
#X floatatom 285 177 5 0 0 0 - - -;
#X obj 269 296 osc~ 220;
#X obj 189 329 *~;
#X obj 284 208 * 220;
#X floatatom 363 135 5 0 0 0 - - -;
#X floatatom 326 225 5 0 0 0 - - -;
#X obj 28 -53 import mrpeach;
#X obj 28 -25 udpreceive 6666;
#X obj 28 37 unpackOSC;
#X obj 28 71 routeOSC /test;
#X obj 126 129 print;
#X obj 219 498 output~;
#X text 404 145 SET AROUND 140;
#X obj 137 284 vline~;
#X msg 142 237 \$1 50;
#X obj 144 183 / 3;
#X obj 534 37 select 2;
#X msg 522 85 1;
#X obj 532 124 -;
#X floatatom 588 152 5 0 0 0 - - -;
#X obj 320 445 *~;
#X floatatom 454 307 5 0 0 0 - - -;
#X obj 147 429 *~;
#X obj 180 71 unpack string f f f;
#X connect 0 0 3 0;
#X connect 1 0 2 1;
#X connect 2 0 22 0;
#X connect 2 0 20 0;
#X connect 3 0 1 0;
#X connect 3 0 5 0;
#X connect 4 0 3 1;
#X connect 7 0 8 0;
#X connect 8 0 9 0;
#X connect 9 1 23 0;
#X connect 13 0 2 0;
#X connect 14 0 13 0;
#X connect 15 0 14 0;
#X connect 16 1 17 0;
#X connect 17 0 18 0;
#X connect 18 0 19 0;
#X connect 19 0 22 1;
#X connect 20 0 11 1;
#X connect 21 0 20 1;
#X connect 22 0 11 0;
#X connect 23 1 10 0;
#X connect 23 1 15 0;
#X connect 23 2 0 0;
#X connect 23 3 16 0;
#X connect 23 3 18 1;
#X connect 23 3 21 0;
