#N canvas 2190 26 1095 695 10;
#X declare -lib mrpeach;
#X floatatom 287 188 5 0 0 0 - - -;
#X obj 273 531 *~;
#X floatatom 305 328 5 0 0 0 - - -;
#X obj 36 31 import mrpeach;
#X obj 36 59 udpreceive 6666;
#X obj 36 121 unpackOSC;
#X obj 36 155 routeOSC /test;
#X obj 188 155 unpack string f f;
#X obj 552 270 print;
#X obj 274 621 output~;
#X obj 150 368 vline~;
#X msg 150 321 \$1 50;
#X obj 152 267 / 3;
#X floatatom 439 323 5 0 0 0 - - -;
#X floatatom 486 251 5 0 0 0 - - -;
#X obj 426 406 osc~;
#X obj 287 436 osc~;
#X obj 471 490 *~;
#X floatatom 87 310 5 0 0 0 - - -;
#X obj 540 362 vline~;
#X floatatom 502 364 5 0 0 0 - - -;
#X obj 533 291 / 10;
#X obj 428 285 * 220;
#X obj 287 292 * 140;
#X obj 822 231 print;
#X floatatom 709 284 5 0 0 0 - - -;
#X floatatom 756 212 5 0 0 0 - - -;
#X obj 696 367 osc~;
#X obj 741 451 *~;
#X obj 810 323 vline~;
#X floatatom 772 325 5 0 0 0 - - -;
#X obj 803 252 / 10;
#X obj 699 246 * 50;
#X obj 285 585 *~ 0.5;
#X connect 0 0 22 0;
#X connect 0 0 23 0;
#X connect 0 0 32 0;
#X connect 1 0 33 0;
#X connect 4 0 5 0;
#X connect 5 0 6 0;
#X connect 6 1 7 0;
#X connect 7 1 12 0;
#X connect 7 1 14 0;
#X connect 7 1 26 0;
#X connect 7 2 0 0;
#X connect 10 0 1 0;
#X connect 11 0 10 0;
#X connect 12 0 11 0;
#X connect 12 0 18 0;
#X connect 13 0 15 0;
#X connect 14 0 8 0;
#X connect 14 0 21 0;
#X connect 15 0 17 0;
#X connect 16 0 1 1;
#X connect 17 0 33 0;
#X connect 19 0 17 1;
#X connect 21 0 19 0;
#X connect 21 0 20 0;
#X connect 22 0 13 0;
#X connect 23 0 2 0;
#X connect 23 0 16 0;
#X connect 25 0 27 0;
#X connect 26 0 24 0;
#X connect 26 0 31 0;
#X connect 27 0 28 0;
#X connect 28 0 33 0;
#X connect 29 0 28 1;
#X connect 31 0 29 0;
#X connect 31 0 30 0;
#X connect 32 0 25 0;
#X connect 33 0 9 0;
