#N canvas 2476 26 809 695 10;
#X declare -lib mrpeach;
#X floatatom 286 217 5 0 0 0 - - -;
#X obj 273 531 *~;
#X floatatom 305 328 5 0 0 0 - - -;
#X obj 36 31 import mrpeach;
#X obj 36 59 udpreceive 6666;
#X obj 36 121 unpackOSC;
#X obj 36 155 routeOSC /test;
#X obj 188 155 unpack string f f;
#X obj 274 621 output~;
#X obj 150 368 vline~;
#X msg 150 321 \$1 50;
#X obj 152 267 / 3;
#X floatatom 87 310 5 0 0 0 - - -;
#X obj 324 499 vcf~ 20;
#X obj 430 280 osc~;
#X floatatom 414 219 5 0 0 0 - - -;
#X obj 291 434 osc~;
#X obj 287 292 * 140;
#X obj 519 245 print;
#X obj 376 188 / 80;
#X obj 433 334 *~ 200;
#X obj 418 400 +~ 300;
#X connect 0 0 17 0;
#X connect 1 0 8 0;
#X connect 4 0 5 0;
#X connect 5 0 6 0;
#X connect 6 1 7 0;
#X connect 7 1 11 0;
#X connect 7 1 19 0;
#X connect 7 2 0 0;
#X connect 9 0 1 0;
#X connect 10 0 9 0;
#X connect 11 0 10 0;
#X connect 11 0 12 0;
#X connect 13 0 1 1;
#X connect 14 0 20 0;
#X connect 15 0 14 0;
#X connect 15 0 18 0;
#X connect 16 0 13 0;
#X connect 17 0 2 0;
#X connect 17 0 16 0;
#X connect 19 0 15 0;
#X connect 20 0 21 0;
#X connect 21 0 13 1;
